<?xml version="1.0" encoding="utf-8"?>
<!-- Generator: Adobe Illustrator 24.1.1, SVG Export Plug-In . SVG Version: 6.00 Build 0)  -->
<svg version="1.1" id="Layer_1" xmlns="http://www.w3.org/2000/svg" xmlns:xlink="http://www.w3.org/1999/xlink" x="0px" y="0px"
	 width="1812.09px" height="1006.52px" viewBox="0 0 1812.09 1006.52" style="enable-background:new 0 0 1812.09 1006.52;"
	 xml:space="preserve">
<style type="text/css">
	.st0{display:none;}
	.st1{display:inline;fill:#4D4D4D;}
	.st2{fill:#4D4D4D;}
	.st3{fill:#FFB900;}
	.st4{display:inline;fill:#F15A24;}
	.st5{fill:#F2F2F2;}
</style>
<g>
	<g class="st0">
		<path class="st1" d="M475.9,819.42h-22.68v-9.96h56.4v9.96h-22.58v59.06H475.9V819.42z"/>
		<path class="st1" d="M610.88,863.99h-37.37l-6.51,14.5h-11.73l30.96-69.02h12.03l30.96,69.02h-11.73L610.88,863.99z M592.24,821.1
			l-14.59,32.83h29.19L592.24,821.1z"/>
		<path class="st1" d="M736.09,825.34c-2.37-2.37-5.24-4.19-8.63-5.47c-3.39-1.28-6.72-1.92-10.01-1.92
			c-7.82,0-14.04,2.56-18.64,7.69c-4.6,5.13-6.87,11.47-6.8,19.03c0,6.97,2.14,12.85,6.41,17.65c4.27,4.8,10.62,7.2,19.03,7.2
			c6.38,0,12-2.04,16.86-6.12v-14h-19.23v-9.86h29.48v28.3c-7.3,8.02-16.33,12.03-27.11,12.03c-6.12,0-11.55-0.97-16.32-2.91
			c-4.77-1.94-8.56-4.57-11.39-7.89c-2.83-3.32-4.96-7.03-6.41-11.14c-1.45-4.11-2.17-8.53-2.17-13.26
			c0-10.45,3.22-19.21,9.66-26.28c6.44-7.07,15.32-10.6,26.62-10.6c9.99,0,18.5,3.49,25.54,10.45L736.09,825.34z"/>
		<path class="st1" d="M819,809.47v58.76h36.38v10.26h-47.43v-69.02H819z"/>
		<path class="st1" d="M915.13,878.49v-69.02h10.94v69.02H915.13z"/>
		<path class="st1" d="M1040.34,858.57v-49.1h11.04v69.02h-8.38l-39.14-48.71v48.71h-11.14v-69.02h8.48L1040.34,858.57z"/>
		<path class="st1" d="M1169.01,878.49h-50.98v-69.02h50.68v10.75h-39.64v18.63h38.06v10.26h-38.06v18.54h39.93V878.49z"/>
		<path class="st1" d="M1353.87,878.49v-28.69h-36.48v28.69h-11.04v-69.02h11.04v30.07h36.48v-30.07h10.95v69.02H1353.87z"/>
		<path class="st1" d="M1482.43,878.49h-50.98v-69.02h50.68v10.75h-39.64v18.63h38.06v10.26h-38.06v18.54h39.93V878.49z"/>
		<path class="st1" d="M1605.48,878.49h-12.92l-21-23.86h-14.59v23.86h-11.04v-69.12c3.55,0,8.91,0.02,16.07,0.05
			c7.16,0.03,12.52,0.05,16.07,0.05c7.63,0,13.59,2.22,17.9,6.65c4.3,4.44,6.46,9.75,6.46,15.92c0,5.46-1.53,10.17-4.59,14.15
			c-3.06,3.98-7.77,6.43-14.15,7.34l20.61,22.98L1605.48,878.49z M1556.96,819.52v25.04h21c4.34,0,7.63-1.18,9.86-3.55
			c2.24-2.37,3.35-5.3,3.35-8.78c0-3.42-1.12-6.39-3.35-8.92c-2.23-2.53-5.49-3.8-9.76-3.8H1556.96z"/>
		<path class="st1" d="M1717.28,878.49h-50.98v-69.02h50.68v10.75h-39.64v18.63h38.06v10.26h-38.06v18.54h39.93V878.49z"/>
	</g>
	<g>
		<path class="st2" d="M1511.25,262.6c-0.31-1.65-0.69-3.28-1.05-4.92c-0.16-0.83-0.42-1.63-0.65-2.43l-0.72-2.41
			c-0.45-1.63-1.11-3.15-1.7-4.71c-0.31-0.77-0.6-1.57-0.92-2.33l-1.05-2.26c-2.81-6.02-6.22-11.74-10.17-16.96
			c-3.94-5.24-8.23-10.19-12.91-14.72c-4.7-4.49-9.64-8.75-14.83-12.64c-10.38-7.79-21.59-14.48-33.36-20
			c-11.75-5.55-23.95-10.29-36.5-13.84l-4.71-1.33c-1.57-0.44-3.16-0.81-4.74-1.21c-1.58-0.39-3.16-0.82-4.76-1.17l-4.78-1.05
			l-2.39-0.52l-2.46-0.47l-4.93-0.93l-1.23-0.23l-1.15-0.18l-2.3-0.37l-4.6-0.73l-5.06-0.63c-1.62-0.18-3.23-0.43-4.86-0.56
			l-4.88-0.45l-2.44-0.22l-2.45-0.15l-4.88-0.31c-1.63-0.1-3.26-0.13-4.89-0.19c-1.63-0.04-3.26-0.13-4.89-0.14l-4.89-0.02
			l-2.45-0.01l-2.45,0.06l-4.89,0.13c-1.63,0.07-3.26,0.19-4.88,0.29c-1.63,0.12-3.25,0.17-4.87,0.35
			c-3.24,0.31-6.49,0.57-9.71,1.02c-1.61,0.21-3.23,0.39-4.84,0.63c-1.61,0.25-3.21,0.51-4.82,0.76
			c-12.84,2.06-25.45,5.41-37.58,10.01c-6.07,2.31-11.98,5.03-17.74,8.04c-5.75,3.06-11.24,6.64-16.47,10.59
			c-5.24,3.93-10.09,8.48-14.46,13.48c-4.37,5-8.17,10.59-11.11,16.62c-0.68,1.54-1.35,3.07-2.03,4.61
			c-0.6,1.57-1.12,3.17-1.67,4.75c-0.28,0.75-0.5,1.66-0.73,2.54l-0.65,2.64l-0.31,1.32l-0.08,0.33l-0.04,0.25l-0.08,0.51
			l-0.32,2.03l-0.16,1.01l-0.08,0.51l-0.04,0.26c0-0.02-0.17,1.09-0.11,0.77l-0.18,2.46l-0.17,2.45c-0.07,0.81-0.01,1.63-0.01,2.44
			l0.05,2.43l0.03,1.21l0.12,1.2c0.18,1.59,0.31,3.19,0.55,4.76c0.97,6.28,2.88,12.17,5.24,17.62l0.91,2.03
			c0.3,0.68,0.6,1.35,0.96,1.98c0.69,1.28,1.37,2.56,2.05,3.83c0.72,1.25,1.49,2.44,2.24,3.64c0.38,0.59,0.74,1.21,1.14,1.78
			l1.22,1.7c1.31,1.84,2.66,3.59,4.05,5.3c-48.32,14.91-106.04,17.1-135.49,0.89c-14.72-8.11-37.78-26.43-62.66-47.25
			c8.53-3.75,17.16-8.53,25.31-15.04l1.64-1.3c0.55-0.44,1.06-0.93,1.6-1.4c1.05-0.95,2.12-1.89,3.16-2.88
			c1.01-1.04,2.02-2.08,3.04-3.13c0.52-0.51,1-1.07,1.47-1.64l1.44-1.7c3.78-4.59,7.25-9.73,9.92-15.51
			c0.66-1.44,1.23-2.94,1.84-4.43l0.45-1.12l0.39-1.25l0.76-2.53l0.37-1.27l0.18-0.64c0.06-0.21,0.08-0.35,0.12-0.52l0.43-1.99
			l0.43-2c-0.05,0.34,0.14-0.73,0.13-0.74l0.04-0.31l0.08-0.61l0.16-1.23c0.87-6.55,0.75-13.37-0.41-19.99
			c-0.31-1.65-0.69-3.28-1.05-4.93c-0.16-0.83-0.42-1.63-0.65-2.43l-0.72-2.41c-0.45-1.63-1.11-3.15-1.7-4.71
			c-0.31-0.78-0.6-1.57-0.92-2.33l-1.05-2.26c-2.82-6.02-6.23-11.74-10.18-16.97c-3.94-5.24-8.24-10.21-12.92-14.73
			c-4.7-4.49-9.64-8.75-14.84-12.65C995.72,94,984.5,87.3,972.73,81.77c-11.76-5.56-23.97-10.3-36.54-13.85l-4.71-1.33
			c-1.57-0.44-3.16-0.81-4.74-1.22c-1.59-0.39-3.17-0.82-4.76-1.17l-4.78-1.05l-2.39-0.53l-2.46-0.47l-4.93-0.93l-1.23-0.23
			l-1.15-0.18l-2.3-0.37l-4.61-0.73l-5.07-0.63c-1.62-0.18-3.24-0.43-4.87-0.56l-4.88-0.45l-2.44-0.22l-2.45-0.15l-4.89-0.31
			c-1.63-0.1-3.26-0.12-4.9-0.19c-1.63-0.05-3.26-0.13-4.9-0.14l-4.9-0.02l-2.45-0.01l-2.45,0.06l-4.89,0.13
			c-1.63,0.07-3.26,0.19-4.89,0.29c-1.63,0.12-3.25,0.17-4.88,0.35c-3.25,0.32-6.49,0.57-9.72,1.02c-1.61,0.21-3.23,0.39-4.84,0.63
			c-1.61,0.26-3.22,0.51-4.82,0.76c-12.85,2.06-25.47,5.42-37.61,10.02c-6.07,2.31-11.99,5.03-17.76,8.05
			c-5.75,3.07-11.25,6.64-16.48,10.59c-5.24,3.94-10.1,8.49-14.47,13.5c-4.37,5.01-8.17,10.6-11.12,16.64
			c-0.68,1.54-1.36,3.08-2.03,4.61c-0.6,1.57-1.12,3.17-1.67,4.75c-0.28,0.75-0.51,1.66-0.73,2.54l-0.65,2.64l-0.31,1.32l-0.07,0.33
			l-0.04,0.25l-0.08,0.51l-0.32,2.04l-0.16,1.02l-0.08,0.5l-0.04,0.25c0-0.02-0.17,1.1-0.11,0.77l-0.19,2.46l-0.17,2.45
			c-0.07,0.82-0.01,1.63-0.01,2.45l0.05,2.43l0.03,1.21l0.12,1.2c0.18,1.6,0.31,3.2,0.55,4.76c0.97,6.28,2.88,12.18,5.24,17.63
			l0.91,2.03c0.3,0.68,0.6,1.35,0.96,1.98c0.69,1.28,1.37,2.56,2.05,3.84c0.72,1.25,1.49,2.44,2.24,3.64
			c0.38,0.6,0.74,1.21,1.14,1.78l1.22,1.7c6.45,9.1,13.97,16.47,21.67,22.69c15.44,12.42,31.47,20.33,45.92,26.03
			c1.82,0.68,3.58,1.43,5.36,2.02c1.77,0.62,3.51,1.23,5.22,1.82c1.71,0.57,3.42,1.08,5.08,1.61c0.83,0.25,1.65,0.51,2.47,0.76
			c0.82,0.23,1.64,0.45,2.44,0.67c1.61,0.44,3.19,0.87,4.73,1.29c1.55,0.38,3.07,0.75,4.56,1.11c0.22,0.06,0.43,0.09,0.65,0.15
			c-1.88,22.03-3.32,42.05-3.32,42.05c-0.83,11.15,43.37,19.37,56.83,20.63c13.45,1.25,13.4-13.3,18.71-26.7
			c5.3-13.4,8.41-14.88,17.75-5.18c9.34,9.7,46.47,55.41,44.59,80.24c-0.83,10.96-15.37,22.01-33.16,31.69
			c-1.01-0.62-2.01-1.24-3.04-1.82c-6.11-3.41-12.45-6.22-18.95-8.53c-6.51-2.27-13.15-4-19.87-5.29l-2.53-0.46l-2.56-0.42
			l-1.18-0.18l-1.31-0.18c-0.85-0.11-1.69-0.22-2.55-0.31c-3.39-0.38-6.81-0.66-10.23-0.81c-3.42-0.15-6.86-0.18-10.29-0.09
			c-3.44,0.11-6.87,0.37-10.31,0.76c-3.43,0.4-6.86,0.92-10.28,1.62c-1.71,0.34-3.41,0.74-5.11,1.15c-1.69,0.44-3.38,0.92-5.07,1.45
			c-6.72,2.13-13.36,4.93-19.58,8.9c-3.1,2.01-6.09,4.28-8.87,6.93c-2.76,2.65-5.34,5.65-7.44,9.09c-2.09,3.42-3.72,7.26-4.63,11.28
			c-0.11,0.51-0.23,0.98-0.32,1.57c-0.1,0.55-0.21,1.2-0.24,1.52l-0.07,0.59l-0.02,0.15l-0.04,0.25l-0.01,0.1l-0.03,0.38
			c-0.04,0.51-0.1,1.02-0.11,1.53c-0.11,2.05-0.02,4.1,0.25,6.1c0.52,4.01,1.72,7.83,3.33,11.3c1.61,3.49,3.67,6.61,5.95,9.44
			c2.28,2.83,4.79,5.36,7.42,7.66c2.65,2.29,5.44,4.33,8.3,6.18c2.86,1.86,5.81,3.51,8.83,4.99c3.02,1.46,6.07,2.81,9.18,3.95
			c3.92,1.46,7.89,2.65,11.9,3.64c-1.17,7.12-1.84,13.59-2.12,18.44c-1.13,19.51,15.67,22.09,39.74,24.45
			c24.06,2.35,19.61-25.57,26.26-37.47c4.7-8.42,21.22-16.04,37.46-20.1c0.12-6.01,0.2-9.83,0.2-10c0.03-2.44,0.04-4.73,0.05-6.9
			c0.06-13.61,0.1-22.6,4.15-28.53c0.08-0.12,0.19-0.25,0.28-0.37c3.49-4.76,13.02-11.39,17.82-14.47c0.36,0.66,0.73,1.91,0.59,3.5
			c-0.14,1.44-0.72,3.37-2.77,4.42c-9.86,5.04-13.77,11.24-14.41,22.89c-0.49,8.88-1.47,98.76-1.47,101.74
			c0.01,5.52-0.02,12.38,8.35,12.41c0.13,0,0.26,0,0.37,0c3.06,0.21,6.7,0.17,9.73-0.09c2.95-0.26,5.2-0.7,6.89-1.36
			c3.54-1.38,5.33-3.84,6.27-6.37c-0.55,0.54-1.24,1.01-2.13,1.36c-3.13,1.23-10.05,1.43-14.53,1.13c-1.87-0.13-5.99,0.85-6.01-7.32
			c0-1.5,1.3-44.92,2.28-74.78c1.2-0.11,2.37-0.2,3.51-0.25c4.51-0.2,12.78,0.08,23.38,0.72c2.38-32.21,4.91-66.41,5.86-79.05
			c1.93-25.61,3.03-31.36,7.37-38.44c0.07-0.12,0.17-0.24,0.25-0.36c3.94-5.96,14.73-10.97,29.03-13.45
			c0.18-0.03,0.35-0.05,0.52-0.07c0.78-0.07,2.84-0.25,3.37,3.54c0.41,2.93-0.76,5.48-1.56,5.81c-2.59,0.3-16.64,2.39-24.71,12.32
			c-1.62,1.99-5.41,6.65-12.35,84.35c-3.46,38.73-6.37,82.35-6.5,97.24c-0.18,22.16-7.92,22.84-12.54,23.24
			c-0.86,0.08-1.73,0.12-2.57,0.16l-0.95,0.05c-4.74,0.26-16.4-0.01-21.83-0.81c-1.93-0.28-3.4-0.77-4.5-1.53
			c1.75,3.2,4.91,5.1,9.69,5.8c5.72,0.84,17.75,1.12,22.78,0.85c7.93-0.43,20.41,0.1,20.64-28.23c0.09-11.04,1.8-39.38,4.25-70.32
			c5.64,0.42,11.61,0.89,17.8,1.41c2.16-12.77,4.18-26.26,4.84-29.65c1.27-6.5,5.99-9.69,12.38-8.83c5.2,0.7,16,2.8,19.66,3.62
			l5.51,0.93l1.53-15.13c-10.19-2.34-12.58-12.51-12.79-21.79c11.5-6.45,29.16-4.22,41.14,2.39c-13.85-4.02-32-3.47-36.47,0.51
			c0.2,9.28,6.94,14.8,12.72,15.61l-3.44,28.49l-4.15-6.23c-3.47-0.78-13.4-2.72-18.84-3.51c-0.75,0.23-1.42,0.51-1.9,0.87
			c-2.33,1.71,3.9,11.98,8.38,13.65c3.55,1.32,18.09,6.14,37.33,8.5c0,0-27.23-2.35-32.14-2.95c-5.08-0.63-7.26,2.85-9.21,10.31v0
			c-1.68,6.43-4.84,19.67-5.68,23.22c-0.13,0.57-0.21,0.9-0.21,0.9s0.08-0.33,0.21-0.9c0.64-2.72,1.86-11.04,2.35-18.47
			c0.37-5.65,0.31-10.79-0.76-12.52c-2.75-4.43-6.13-8.84-12.17-10.66c-1.54,8.52-4.88,27.91-7.45,39.62
			c-1.97,8.96,4.51,19.89,9.77,24.65c1.85,1.68,8.4,3.18,9.1,3.24c5.04,0.42,18.11,1.44,31.49,2.49c-0.04-0.02-0.07-0.04-0.11-0.06
			c2.49,0.3,5.2,0.53,8.19,0.69c-6.96-4.31-8.69-21.45-4.69-31.21c3.8-9.27-11.05-22.61-19.49-7.36
			c3.22-9.84,10.45-17.89,19.69-19.69c2.53-0.49,4.88-0.59,7.04-0.36c-2.7,0.75-4.92,1.88-5.48,3.58
			c-1.66,5.05,9.01,6.93,12.66,6.61c3.65-0.32,13-3.62,22.59,8.07c2.05,3.79,3.13,8.64,3.11,14.25c-0.04,10.5-6.39,21.9-14.93,27.68
			c1.97,0.15,3.67,0.28,5.02,0.38c1.01,0.08,1.85,0.14,2.44,0.18c5.65,1.28,9.77-25.27,12.39-40.97c6.83,0.97,13.77,2.87,20.68,5.43
			c0-0.94,0-1.87,0-2.79c0-1.55,0-3.07,0-4.6c0.01-2.06-0.06-4.17-0.19-6.29c-0.99-15.99-5.92-32.66-15.62-38.08l-0.1-0.06
			l-0.11-0.05c-1.18-0.58-2.07-1.28-2.65-2.07c-0.71-0.95-0.99-2.01-0.74-3.12c0.25-1.11,1.09-2.34,2.39-2.58
			c0.72-0.13,1.54,0.05,2.42,0.52c0.24,0.12,0.47,0.26,0.71,0.42c1.91,1.31,20.83,13.51,19.92,54.8
			c-0.67,30.53-1.11,66.41-2.07,73.84c-1.18,9.1-0.14,10.63,5.22,10.21c0,0,4.34-0.13,9.6-0.29c-2.6-0.72-4.35-2.05-4.64-6.36
			c-0.39-5.83-0.76-38.19-0.25-67.5c9.51,4.65,18.8,10.23,27.54,16.05c-0.3-38.79-1.16-91.81-1.58-101.29
			c-0.01-0.25-0.03-0.46-0.05-0.7c-0.92-17.04-6.56-22.73-15.03-29.37c-7.12-5.58-14.5-11.03-17.33-13.12
			c-0.25-0.18-0.48-0.35-0.65-0.48c-0.45-0.92-0.23-2.74,0.58-4.63c1.33-3.1,3.76-5.47,5.19-5.72c0.17-0.03,0.34-0.04,0.61,0.1
			c0.2,0.15,0.6,0.44,1.14,0.83c3.73,2.73,14.47,10.72,19.01,15.3l1.13,1.14c10.6,10.67,16.44,16.55,15.57,29.26
			c-0.46,6.81,0.06,30.7-0.37,70.95c-0.44,41.14-0.65,87.73-1.22,92.2c0,0-1.17,10.13-9.06,10.46c-9.66,0.41-30.31,1.33-37.95-0.27
			c-0.89-0.19-1.64-0.35-2.2-0.46c-1.39-0.28-2.73-1.56-3.43-3.84c-0.43,7.77,3.24,12.09,7.34,12.92c5.62,1.14,30.03,2.03,41.61,0.8
			c11.58-1.23,12.54-9.01,13.79-14.81c0.42-1.96,0.63-21.57,0.77-46.62c12.96,9.65,23.66,18.48,30.48,23.13
			c18.92,12.91,5.67,23.37,4.82,36.79c-0.86,13.42,28.08,20.61,41.48,16.61c8.68-2.59,12.71-21.57,13.56-38.83
			c0.77-0.01,1.55-0.03,2.34-0.06c3.57-0.12,7.38-0.45,11.39-1.07c2.01-0.31,4.06-0.69,6.17-1.16c2.09-0.48,4.24-1.06,6.41-1.74
			c4.34-1.37,8.84-3.16,13.27-5.75c4.43-2.55,8.87-5.86,12.67-10.38c1.89-2.25,3.63-4.81,5.01-7.66c0.69-1.42,1.32-2.9,1.81-4.46
			c0.24-0.79,0.47-1.51,0.68-2.45l0.16-0.67l0.11-0.51l0.1-0.47l0.05-0.23c-0.02,0.12,0.05-0.28,0.05-0.3l0.02-0.15
			c1.13-6.54,0.23-13.58-2.24-19.68c-2.44-6.15-6.15-11.52-10.38-16.2c-4.28-4.64-9.1-8.62-14.22-12.08
			c-10.25-6.91-21.68-11.77-33.41-15.01c-11.75-3.24-23.83-4.88-35.83-4.9c-11.99-0.03-23.9,1.65-35.05,5.31
			c-0.17,0.05-0.33,0.12-0.5,0.18c-3.22-3.05-5.83-5.55-7.54-7.27c-3.79-3.84-7.64-7.91-11.03-12.12c0.11-18.11,0.27-32,0.54-35.98
			c0.19-2.74,0.08-5.21-0.26-7.5c17.28-14.12,56.09-33.45,82.14-41.33c1.3,0.35,2.59,0.71,3.85,1.05c1.55,0.38,3.07,0.75,4.55,1.11
			c2.95,0.76,5.82,1.29,8.51,1.84c5.4,1.06,10.25,1.85,14.48,2.38c2.83,0.42,5.38,0.67,7.64,0.89c5.19,6.45,8.96,14.42,13.95,19.89
			c10.34,11.33,39.98,8.03,48.77-6.68c0.94-1.58,1.78-3.62,2.52-6c6.43,0.04,13.35-0.21,20.75-0.91
			c15.45-1.48,33.03-4.65,51.29-12.3c9.1-3.85,18.37-8.85,27.08-15.81l1.64-1.3c0.54-0.44,1.06-0.93,1.59-1.39
			c1.05-0.95,2.12-1.88,3.16-2.88c1.01-1.04,2.02-2.08,3.03-3.12c0.52-0.51,1-1.07,1.47-1.64l1.44-1.7
			c3.78-4.58,7.24-9.72,9.91-15.49c0.66-1.44,1.23-2.94,1.84-4.42l0.45-1.12l0.39-1.26l0.76-2.53l0.37-1.27l0.18-0.64
			c0.06-0.22,0.08-0.35,0.12-0.52l0.43-1.99l0.43-2c-0.05,0.34,0.13-0.74,0.13-0.75l0.04-0.3l0.08-0.62l0.15-1.23
			C1512.53,276.02,1512.41,269.22,1511.25,262.6z M853.18,193.67c-7.94,15.63-15.71,85.38-7.67,91.95
			c9.06,7.41,34.63,16.04,35.29,15.99c0,0-45.67-6.22-46.23-13.68c-1.32-17.48,1.77-78.76,9.56-97.23
			c9.62-22.82,28.17-30.15,39.36-23.8C863.02,171.1,858.57,183.05,853.18,193.67z M841.39,467.67c-0.46-0.21-0.92-0.41-1.37-0.63
			c-2.82-1.35-5.58-2.78-8.25-4.33c-2.67-1.55-5.28-3.17-7.78-4.92c-2.49-1.76-4.89-3.6-7.15-5.54c-2.26-1.94-4.37-4.02-6.3-6.18
			c-1.93-2.15-3.68-4.41-5.14-6.76c-1.45-2.35-2.65-4.76-3.48-7.18c-0.83-2.42-1.29-4.84-1.33-7.19c-0.11-4.7,1.33-9.09,4.16-12.89
			c2.79-3.83,6.88-7.14,11.6-9.75c4.72-2.62,10.01-4.66,15.53-6.11c5.53-1.43,11.27-2.45,17.11-2.94
			c5.83-0.47,11.74-0.57,17.64-0.26c2.95,0.16,5.9,0.43,8.85,0.79c0.74,0.09,1.47,0.19,2.2,0.29l2.24,0.32l2.16,0.34l2.18,0.38
			c5.83,1.06,11.57,2.52,17.15,4.38c2.14,0.69,4.25,1.47,6.34,2.29c-16.27,7.25-31.87,13.03-39.95,16.37
			C853.36,424.11,845.36,447.35,841.39,467.67z M928.54,406.67c-36.5,17.46-43.39,18.82-53.93,23.86
			c-18.72,8.95-27.54,69.19-20.26,72.33c0,0-10.88-1.46-9.97-13.32c0.97-12.45,6.78-57.47,25.83-64.84
			c11.39-4.4,32.26-14.96,56.42-25.42c24.16-10.46,43.5-26.87,45.07-43C980.74,380.9,932.46,404.8,928.54,406.67z M904.08,168.33
			c-42.58-32.35-66.36,9.28-69.83,26.27c-1.53,7.52-3.5,27.13-5.22,46.66c-1.14-0.44-2.28-0.89-3.46-1.35
			c-1.43-0.61-2.88-1.23-4.37-1.86c-0.74-0.32-1.49-0.64-2.25-0.96c-0.75-0.35-1.5-0.69-2.26-1.05c-1.52-0.71-3.08-1.39-4.65-2.14
			c-1.56-0.77-3.14-1.55-4.75-2.35c-1.62-0.77-3.2-1.68-4.84-2.54c-6.5-3.53-13.27-7.49-19.98-12.2c-6.71-4.69-13.44-10-19.69-16.16
			c-0.78-0.77-1.56-1.55-2.34-2.32c-0.75-0.81-1.5-1.61-2.26-2.43c-1.55-1.59-2.93-3.33-4.39-5.03c-2.77-3.49-5.48-7.12-7.7-11.02
			l-0.86-1.45c-0.28-0.49-0.52-0.99-0.78-1.49c-0.5-1-1.05-1.98-1.54-2.99c-0.45-1.02-0.9-2.04-1.35-3.06
			c-0.25-0.51-0.44-1.03-0.62-1.55l-0.56-1.57c-1.45-4.19-2.49-8.49-2.82-12.83c-0.08-1.08-0.07-2.17-0.12-3.25l-0.03-0.81
			l0.05-0.81l0.08-1.62c0.04-0.54,0.01-1.08,0.1-1.62l0.23-1.61l0.19-1.49l0.02-0.12l0.11-0.5l0.22-1l0.44-2.01l0.11-0.5l0.05-0.25
			l0.06-0.17l0.24-0.67l0.45-1.35c0.15-0.45,0.26-0.89,0.51-1.42c0.44-1.02,0.83-2.04,1.29-3.05c0.51-0.99,1.02-1.99,1.54-2.98
			c4.51-7.8,11.29-14.89,19.71-20.66c4.2-2.89,8.73-5.49,13.51-7.84c4.81-2.3,9.8-4.42,15.01-6.19c5.22-1.74,10.55-3.36,16.06-4.57
			c2.72-0.69,5.52-1.19,8.29-1.79c1.4-0.24,2.81-0.48,4.21-0.73c1.4-0.25,2.81-0.49,4.24-0.67c1.42-0.2,2.84-0.39,4.26-0.59
			c1.43-0.18,2.86-0.31,4.3-0.47c2.86-0.34,5.76-0.5,8.65-0.73c1.44-0.13,2.9-0.14,4.35-0.22c1.45-0.06,2.9-0.14,4.36-0.17
			l4.38-0.08l2.19-0.04l2.19,0.02l4.39,0.05c1.46,0.02,2.93,0.11,4.4,0.16c1.47,0.07,2.93,0.1,4.4,0.2l4.4,0.31l2.2,0.15l2.2,0.22
			l4.4,0.44c1.47,0.12,2.93,0.36,4.39,0.54l4.18,0.54l4.61,0.71l2.3,0.35l1.15,0.18l1.06,0.19l4.23,0.77l2.12,0.39l2.16,0.46
			l4.32,0.92c1.44,0.31,2.86,0.69,4.28,1.03c1.42,0.35,2.86,0.67,4.27,1.06l4.24,1.17c11.27,3.17,22.25,7.07,32.7,11.78
			c1.32,0.56,2.61,1.18,3.89,1.81c1.28,0.62,2.57,1.25,3.85,1.86c1.25,0.66,2.51,1.32,3.76,1.98l1.88,0.99l1.83,1.05
			c4.96,2.69,9.63,5.71,14.17,8.83c4.51,3.15,8.73,6.56,12.71,10.1c3.93,3.59,7.56,7.34,10.81,11.27
			c6.5,7.86,11.04,16.55,13.22,25.28c1.05,4.38,1.38,8.78,1.09,13.12l-0.04,0.81l-0.02,0.41l-0.01,0.2
			c-0.01,0.16,0.13-0.75,0.05-0.24l-0.31,2.02l-0.31,2.01c-0.03,0.15-0.05,0.37-0.08,0.48l-0.09,0.34l-0.18,0.68l-0.32,1.37
			l-0.15,0.69l-0.25,0.77c-0.35,1.02-0.64,2.07-1.01,3.08c-1.51,4.07-3.7,7.92-6.25,11.54l-0.97,1.35c-0.32,0.45-0.64,0.9-1.02,1.32
			c-0.72,0.86-1.43,1.71-2.14,2.57c-0.74,0.83-1.55,1.62-2.31,2.44c-0.39,0.4-0.75,0.83-1.16,1.21l-1.23,1.15
			c-3.21,3.13-6.81,5.88-10.44,8.46c-1.87,1.23-3.68,2.52-5.61,3.62c-0.95,0.57-1.9,1.14-2.84,1.7c-0.97,0.53-1.94,1.06-2.9,1.59
			c-1.6,0.87-3.21,1.69-4.82,2.48C954.94,210.34,925.05,184.27,904.08,168.33z M1236.99,462.55c2.48-0.27,4.99-0.41,7.51-0.54
			c2.53-0.08,5.08-0.12,7.65-0.05c10.25,0.25,20.76,1.65,30.84,4.3c10.07,2.64,19.8,6.52,28.28,11.68c4.24,2.57,8.11,5.5,11.41,8.72
			c3.32,3.18,6.03,6.69,7.76,10.3c1.76,3.6,2.57,7.24,2.3,10.82c-0.27,3.57-1.52,7.06-3.66,10.26c-2.15,3.18-5.02,6.06-8.24,8.49
			c-1.6,1.23-3.3,2.34-5.02,3.36c-1.72,1.04-3.49,1.98-5.26,2.83c-1.78,0.86-3.57,1.62-5.36,2.32c-1.78,0.71-3.56,1.35-5.32,1.92
			c-1.76,0.57-3.49,1.07-5.2,1.52c-1.7,0.46-3.38,0.87-5.01,1.23c-0.43,0.09-0.84,0.16-1.27,0.25c0-6.67-0.49-12.65-1.37-16.72
			c-2.28-10.48-31.31-38.95-53.75-60.22C1234.5,462.84,1235.74,462.69,1236.99,462.55z M1299.07,341.85
			c-1.55-0.56-3.16-1.14-4.79-1.75c0.15-0.02,0.31-0.05,0.46-0.07c10.34-1.35,17.12,2.21,22.34,7.57
			C1312.14,346.18,1306.09,344.33,1299.07,341.85z M1365.39,358.07c-1.07,13.03-23.09,13.63-26.87,6.54
			c-6.25-11.74-12.66-27.64-31.73-31.52c15.25-2.42,30.68,11.7,36.89,24.18c2.74,5.51,11.08,4,11.73-0.43
			c3.08-21.03-8.48-82.38-32.72-86c-16.45-2.46-82.09,27.68-117.74,37.98c-23.93,6.91-74.23,15.02-102.86,4.93
			c46.82,6.48,68.61-3.02,100.08-12.37c33.1-9.83,103.33-41.37,129.96-44.07C1362.44,254.22,1367.48,332.7,1365.39,358.07z
			 M1489.5,280.23l-0.04,0.82l-0.02,0.4l-0.01,0.2c-0.02,0.16,0.13-0.75,0.05-0.24l-0.31,2.02l-0.31,2.01
			c-0.03,0.16-0.05,0.36-0.08,0.47l-0.09,0.34l-0.18,0.68l-0.33,1.37l-0.15,0.69l-0.25,0.77c-0.35,1.02-0.64,2.07-1.01,3.08
			c-1.51,4.06-3.7,7.91-6.24,11.52l-0.98,1.35c-0.32,0.45-0.64,0.9-1.02,1.32c-0.72,0.86-1.43,1.71-2.14,2.56
			c-0.74,0.84-1.55,1.62-2.3,2.44c-0.39,0.4-0.75,0.83-1.16,1.21l-1.23,1.15c-3.21,3.13-6.8,5.87-10.43,8.45
			c-1.87,1.23-3.68,2.52-5.6,3.62c-0.95,0.57-1.9,1.14-2.84,1.7c-0.97,0.53-1.93,1.06-2.89,1.58c-7.7,4.19-15.63,7.43-23.36,10.09
			c-7.74,2.67-15.33,4.61-22.55,6.2c-1.81,0.37-3.58,0.81-5.35,1.11c-1.77,0.32-3.5,0.63-5.21,0.94c-1.71,0.29-3.4,0.51-5.06,0.77
			c-0.49,0.07-0.96,0.15-1.44,0.22c3.93-21.95,3.12-57.61,0.26-73.83c-3.68-20.83-8.13-33.97-43.05-31.79
			c-34.92,2.17-74.18,19.01-125.65,41.01c-1.56,0.67-3.15,1.32-4.75,1.96c-2.29-2.95-4.48-6.01-6.33-9.26l-0.86-1.44
			c-0.28-0.49-0.52-0.99-0.78-1.49c-0.5-1-1.05-1.98-1.53-2.99c-0.45-1.01-0.9-2.04-1.35-3.06c-0.24-0.5-0.43-1.02-0.61-1.55
			l-0.56-1.56c-1.45-4.18-2.49-8.48-2.82-12.81c-0.08-1.08-0.07-2.17-0.12-3.25l-0.03-0.81l0.05-0.81l0.08-1.62
			c0.04-0.54,0.01-1.08,0.1-1.62l0.22-1.61l0.19-1.47l0.03-0.13l0.11-0.5l0.22-1l0.44-2.01l0.11-0.51l0.06-0.25l0.06-0.17l0.24-0.68
			l0.45-1.35c0.15-0.45,0.26-0.89,0.51-1.42c0.44-1.01,0.83-2.04,1.29-3.05c0.51-0.99,1.02-1.98,1.54-2.98
			c4.5-7.79,11.28-14.87,19.69-20.63c4.2-2.88,8.73-5.48,13.5-7.83c4.8-2.3,9.79-4.41,15-6.19c5.22-1.74,10.54-3.36,16.05-4.57
			c2.72-0.69,5.52-1.18,8.28-1.78c1.4-0.24,2.8-0.49,4.21-0.73c1.4-0.25,2.81-0.49,4.23-0.67c1.42-0.2,2.84-0.39,4.26-0.59
			c1.42-0.18,2.86-0.31,4.29-0.47c2.86-0.34,5.75-0.5,8.64-0.73c1.44-0.13,2.9-0.14,4.35-0.22c1.45-0.05,2.9-0.14,4.36-0.17
			l4.37-0.08l2.19-0.04l2.19,0.02l4.39,0.05c1.46,0.01,2.93,0.11,4.39,0.16c1.46,0.07,2.93,0.1,4.4,0.2l4.4,0.31l2.2,0.15l2.2,0.21
			l4.39,0.44c1.47,0.12,2.92,0.36,4.39,0.54l4.18,0.54l4.6,0.71l2.3,0.35l1.15,0.18l1.06,0.2l4.23,0.77l2.12,0.39l2.16,0.46
			l4.31,0.92c1.44,0.31,2.85,0.69,4.28,1.02c1.42,0.36,2.86,0.67,4.27,1.06l4.23,1.17c11.26,3.17,22.23,7.07,32.67,11.77
			c1.32,0.56,2.6,1.18,3.88,1.81c1.28,0.62,2.56,1.24,3.84,1.86c1.25,0.66,2.51,1.32,3.76,1.98l1.87,0.99l1.83,1.05
			c4.95,2.69,9.62,5.71,14.16,8.82c4.51,3.15,8.72,6.55,12.7,10.09c3.92,3.59,7.55,7.34,10.8,11.26
			c6.49,7.85,11.03,16.53,13.2,25.26C1489.46,271.51,1489.79,275.9,1489.5,280.23z"/>
		<path class="st2" d="M1109.2,482.89c0.05-12.45-6.76-20.13-18.22-17.9c-2.15,0.42-4.15,1.27-5.99,2.45
			c0.88-0.35,1.78-0.65,2.73-0.84c10.27-1.99,16.37,4.88,16.33,16.05c-0.04,9.99-8.18,21.18-17.3,22.16
			c-4.42,0.48-7.52-0.7-9.69-2.78c2.35,3.81,6.34,6.3,12.84,5.59C1100.08,506.52,1109.16,494.04,1109.2,482.89z"/>
		<path class="st2" d="M1086.66,499.82c7.13-0.77,13.48-9.5,13.51-17.31c0.04-8.71-4.73-14.08-12.75-12.52
			c-2.54,0.49-4.79,1.85-6.64,3.75c-2.88,4.21-4.47,9.65-4.22,15.08c0.12,2.6,0.56,5.28,1.49,7.65
			C1079.74,498.81,1082.44,500.28,1086.66,499.82z M1092.81,473.69c1.62-0.56,3.6,0.93,4.43,3.32c0.83,2.4,0.19,4.79-1.43,5.35
			s-3.6-0.92-4.43-3.32C1090.55,476.64,1091.19,474.25,1092.81,473.69z"/>
	</g>
	<path class="st3" d="M795.11,372.86C398.36,381.11,24.79,542.66,24.79,678.05c0,77.02,101.68,146.06,262.4,192.8
		C180.79,828.74,116.6,774.2,116.6,714.63c0-126.95,331.86-227.82,702.23-237.58C784.34,475.82,731.72,422.86,795.11,372.86z"/>
	<g class="st0">
		<path class="st1" d="M347.31,630.13c20.15,0,34.66,4.18,43.53,12.54c9.25,8.49,13.87,22.75,13.87,42.77v29.84
			c0,20.15-3.74,34.59-11.21,43.34c-7.98,9.38-21.67,14.07-41.06,14.07h-77.36V630.13H347.31z M346.36,739.61
			c12.8,0,19.2-8.11,19.2-24.33v-29.84c0-8.87-1.52-14.89-4.56-18.06c-2.79-2.79-7.67-4.18-14.64-4.18H313.1v76.41H346.36z"/>
		<path class="st1" d="M496.71,630.13c8.87,0.12,16.03,0.76,21.48,1.9c6.34,1.39,11.47,3.55,15.4,6.46
			c8.11,6.33,12.16,17.93,12.16,34.78v8.36l-0.38,7.61c-0.51,5.07-1.52,9.25-3.04,12.54c-3.42,7.35-11.28,12.48-23.57,15.4v1.52
			c17.11,0.63,25.66,9.06,25.66,25.28v28.7H506.4v-19.96c0.38-11.91-4.82-17.87-15.59-17.87h-29.46v37.82h-38.01V630.13H496.71z
			 M504.88,696.66c0.76-1.52,1.27-3.8,1.52-6.85c0.13-1.26,0.19-2.85,0.19-4.75v-5.51c0-6.46-1.08-10.77-3.23-12.93
			c-2.15-2.28-6.34-3.42-12.54-3.42h-29.46v38.58h29.46C498.29,701.79,502.98,700.08,504.88,696.66z"/>
		<path class="st1" d="M578.25,764.13c-12.29-7.98-18.44-22.18-18.44-42.57v-40.3c0-20.4,6.14-34.6,18.44-42.58
			c5.57-3.55,12.54-6.15,20.91-7.79c7.22-1.27,16.09-1.9,26.61-1.9c10.52,0,19.39,0.63,26.61,1.9c8.36,1.65,15.33,4.25,20.91,7.79
			c12.29,7.98,18.44,22.17,18.44,42.58v40.3c0,20.4-6.14,34.59-18.44,42.57c-5.57,3.55-12.54,6.15-20.91,7.79
			c-7.22,1.27-16.09,1.9-26.61,1.9c-10.52,0-19.39-0.63-26.61-1.9C590.79,770.28,583.82,767.68,578.25,764.13z M652.57,717.38
			v-32.12c0-10.01-1.96-16.54-5.89-19.58c-3.29-2.41-10.26-3.61-20.91-3.61c-10.52,0-17.36,1.2-20.53,3.61
			c-3.93,3.04-6.02,9.57-6.27,19.58v32.12c0.25,10.14,2.34,16.66,6.27,19.58c3.17,2.54,10.01,3.8,20.53,3.8
			c10.64,0,17.61-1.27,20.91-3.8C650.6,734.04,652.57,727.51,652.57,717.38z"/>
		<path class="st1" d="M709.59,772.69V630.13h64.24l40.87,109.48h1.52l-2.28-109.48h38.01v142.55h-64.81l-40.3-109.48h-1.52
			l2.28,109.48H709.59z"/>
		<path class="st1" d="M974.55,687.35v26.42h-60.82v27.75h66.15v31.17H875.71V630.13h102.83v31.17h-64.81v26.04H974.55z"/>
		<path class="st4" d="M1153.95,695.33c6.97,5.19,10.45,15.78,10.45,31.74v8.74c-0.13,3.3-0.38,6.14-0.76,8.55
			c-1.01,6.08-3.23,11.02-6.65,14.83c-4.06,4.69-10.14,8.24-18.25,10.64c-9.12,2.66-21.16,3.99-36.11,3.99
			c-5.58,0-9.95-0.06-13.12-0.19c-4.43-0.13-8.3-0.31-11.59-0.57c-7.98-0.89-14.38-2.73-19.2-5.51
			c-11.02-6.34-16.54-20.08-16.54-41.25h36.49c0,7.1,1.65,11.66,4.94,13.69c2.92,1.77,9.25,2.66,19.01,2.66
			c9.5,0,15.71-0.7,18.63-2.09c3.42-1.64,5.13-5.32,5.13-11.02c0-5.96-1.08-9.57-3.23-10.84c-1.77-1.01-7.35-1.84-16.73-2.47
			l-20.91-1.52c-4.31-0.25-7.98-0.63-11.02-1.14c-7.48-1.01-13.31-2.72-17.49-5.13c-9.76-5.45-14.64-17.42-14.64-35.92
			c0-18.76,5.38-31.11,16.16-37.07c4.81-2.66,11.15-4.44,19.01-5.32c3.42-0.51,7.35-0.83,11.78-0.95c3.55-0.13,7.98-0.19,13.31-0.19
			c4.94,0,8.74,0.06,11.4,0.19c4.06,0,7.67,0.19,10.84,0.57c7.47,0.63,13.62,2.09,18.44,4.37c5.45,2.66,9.63,6.65,12.54,11.98
			c3.04,5.83,4.56,13.43,4.56,22.81v5.89h-36.49c0-6.71-1.65-10.96-4.94-12.73c-2.28-1.27-7.73-1.9-16.35-1.9
			c-9.51,0-15.78,1.01-18.82,3.04c-2.28,1.65-3.42,4.69-3.42,9.12c0,5.19,1.33,8.62,3.99,10.26c1.77,1.02,5.64,1.77,11.59,2.28
			l15.78,1.14C1133.42,687.54,1147.48,690.64,1153.95,695.33z"/>
		<path class="st4" d="M1282.24,687.35v26.42h-60.82v27.75h66.15v31.17h-104.16V630.13h102.83v31.17h-64.81v26.04H1282.24z"/>
		<path class="st4" d="M1384.31,630.13c8.87,0.12,16.03,0.76,21.48,1.9c6.34,1.39,11.47,3.55,15.4,6.46
			c8.11,6.33,12.16,17.93,12.16,34.78v8.36l-0.38,7.61c-0.51,5.07-1.52,9.25-3.04,12.54c-3.42,7.35-11.28,12.48-23.57,15.4v1.52
			c17.11,0.63,25.66,9.06,25.66,25.28v28.7h-38.01v-19.96c0.38-11.91-4.81-17.87-15.59-17.87h-29.46v37.82h-38.01V630.13H1384.31z
			 M1392.49,696.66c0.76-1.52,1.27-3.8,1.52-6.85c0.13-1.26,0.19-2.85,0.19-4.75v-5.51c0-6.46-1.08-10.77-3.23-12.93
			c-2.15-2.28-6.34-3.42-12.54-3.42h-29.46v38.58h29.46C1385.9,701.79,1390.59,700.08,1392.49,696.66z"/>
		<path class="st4" d="M1582.18,630.13l-41.63,142.55h-59.3l-40.3-142.55h38.59l30.79,109.86h1.14l31.36-109.86H1582.18z"/>
		<path class="st4" d="M1590.92,772.69V630.13h38.01v142.55H1590.92z"/>
		<path class="st4" d="M1772.82,722.89c0,4.94-0.06,8.74-0.19,11.4c-0.25,4.06-0.76,7.6-1.52,10.65
			c-1.77,7.47-5.58,13.62-11.4,18.44c-5.7,4.69-12.8,7.73-21.29,9.12c-3.3,0.64-7.22,1.01-11.78,1.14c-1.77,0.13-3.8,0.19-6.08,0.19
			h-6.08c-5.83,0-10.52-0.06-14.07-0.19c-4.81-0.13-9.06-0.44-12.73-0.95c-8.74-1.01-15.84-3.11-21.29-6.27
			c-6.21-3.68-10.9-9.06-14.07-16.16c-3.3-7.73-4.94-17.87-4.94-30.41v-36.88c0-21.92,5.95-36.81,17.87-44.66
			c5.45-3.55,12.48-6.08,21.1-7.6c7.22-1.14,16.6-1.71,28.13-1.71c11.02,0,19.51,0.44,25.47,1.33c7.6,1.01,13.62,3.04,18.06,6.08
			c9.38,6.21,14.26,19.32,14.64,39.35v5.51h-39.15v-5.51c-0.63-5.83-3.04-9.69-7.22-11.59c-3.04-1.4-8.36-2.09-15.97-2.09
			c-10.39,0-17.04,1.96-19.96,5.89c-2.54,3.3-3.8,10.33-3.8,21.1v22.24c0,6.21,0.19,10.71,0.57,13.49c0.38,3.93,1.33,6.97,2.85,9.12
			c2.91,4.56,9.69,6.84,20.34,6.84c8.87,0,14.76-0.89,17.68-2.66c3.8-2.41,5.7-7.48,5.7-15.21v-4.18h39.16V722.89z"/>
		<path class="st4" d="M1890.1,687.35v26.42h-60.82v27.75h66.15v31.17h-104.16V630.13h102.83v31.17h-64.81v26.04H1890.1z"/>
	</g>
</g>
<g>
	<path class="st5" d="M274.76,632.23h32.11v55.83h44v-55.83h32.11v138.51h-32.11v-65.6h-44v65.6h-32.11V632.23z"/>
	<path class="st5" d="M448.83,632.23v138.51h-32.11V632.23H448.83z"/>
	<path class="st5" d="M585.62,770.74h-25.19c-0.86-2.36-1.58-8.04-1.83-11.07c-6.38,9.66-20.15,13.02-35.67,13.02
		c-34.35,0-45.5-14.49-45.5-37.41v-66.84c0-22.66,15.48-38.16,54.47-38.16c46.69,0,52.96,19.56,52.96,35.59v4.09h-32.11v-4.83
		c0-8.31-1.9-17.9-20.96-17.9c-14.8,0-21.64,5.68-21.64,18.71V737c0,12.16,5.81,19.19,20.89,19.19c18.52,0,22.36-9.42,22.36-25.11
		v-21h-23.32v-16.06h55.54V770.74z"/>
	<path class="st5" d="M616.75,632.23h32.11v121.87h60.22l-3.01,16.64h-89.32V632.23z"/>
	<path class="st5" d="M809.6,705.87h-53.09v47.79h60.8l-4.16,17.08H724.4V632.23h88.17v17.23h-56.06v39.33h53.09V705.87z"/>
	<path class="st5" d="M870.52,770.74v-50.17c0-1.68-0.36-2.66-1.22-4.29l-44.38-84.04h35.45c10.57,23.57,22.96,51.1,26.76,65.18
		h0.36c4.8-15.1,17.16-42.32,26.91-65.18h34.09l-45.13,85.5c-0.36,0.97-0.72,2.24-0.72,4.79v48.22H870.52z"/>
	<path class="st5" d="M986.4,730.71v8.34c0,11.46,6.37,17.72,21.57,17.72c15.55,0,20.56-7.59,20.56-19.19
		c0-15.44-5.81-20.77-31.3-32.34c-25.7-11.7-39.15-18.99-39.15-39.46c0-17.96,9.36-35.71,50.2-35.65
		c40.6,0.06,48.52,16.39,48.52,32.5v6.99h-31.86v-6.49c0-10.42-3.26-16.93-17.27-16.93c-13.86,0-17.48,7-17.48,16.89
		c0,11.09,3.72,15.92,25.16,25.12c34.74,14.99,45.53,23.56,45.53,46.66c0,19.57-10.94,37.82-53.82,37.82
		c-41.92,0-52.78-15.62-52.78-33.86v-8.11H986.4z"/>
	<path class="st3" d="M1132.95,632.23h47.95c51.19,0,61.1,16.6,61.1,40.75v53.78c0,21.21-6.02,43.98-61.81,43.98h-47.23V632.23z
		 M1165.06,754.82h12.93c26.26,0,31.28-9.23,31.28-25.16v-58.41c0-14.11-4.34-22.96-31.31-22.96h-12.9V754.82z"/>
	<path class="st3" d="M1303.07,707.65v63.09h-32.11V632.23h47.23c36.24,0,56.15,8.67,56.15,32.75v5.72
		c0,20.24-13.56,26.62-24.38,29.01c14.48,3.57,22.08,9.72,22.08,28.41c0,11.74-0.36,34.09,2.26,42.63h-31.11
		c-3.12-8.48-2.51-31.45-2.51-41.37c0-17.33-4.01-21.73-26.41-21.73H1303.07z M1303.07,692.17h11.49c20.89,0,27.56-5.67,27.56-20.62
		v-5.35c0-11.52-4.73-18.49-26.94-18.49h-12.11V692.17z"/>
	<path class="st3" d="M1509.09,667.84v66.84c0,25.61-18.57,38.01-57.09,38.01c-38.15,0-54-13.21-54-37.72v-67.21
		c0-25.26,21.16-37.48,56.08-37.48C1490,630.28,1509.09,643.19,1509.09,667.84z M1430.72,666.34v70.6
		c0,13.22,8.27,18.96,22.75,18.96c15.44,0,22.89-5.45,22.89-19.42v-70.23c0-12.56-7.05-19.04-23-19.04
		C1438.39,647.21,1430.72,653.2,1430.72,666.34z"/>
	<path class="st3" d="M1538.02,770.74V632.23h37.56c10.96,22.11,41.53,92.27,44.64,101.28h0.47c-1.58-17.7-1.79-37.2-1.79-59.88
		v-41.4h29.85v138.51h-36.2c-9.74-20.53-42.64-96.6-45.93-104.61h-0.36c1.69,16.73,1.86,36.92,1.86,61.87v42.75H1538.02z"/>
	<path class="st3" d="M1767.44,705.87h-53.09v47.79h60.8l-4.16,17.08h-88.75V632.23h88.17v17.23h-56.06v39.33h53.09V705.87z"/>
</g>
<g>
	<path class="st5" d="M525.16,861.25v-8.54c2.26,0.86,4.97,1.64,8.14,2.33c3.16,0.69,6.49,1.27,9.98,1.75
		c3.49,0.47,7,0.84,10.53,1.1c3.53,0.26,6.79,0.39,9.78,0.39c10.32,0,18.02-0.83,23.11-2.48c5.09-1.65,7.64-4.03,7.64-7.14
		c0-1.67-0.85-3.12-2.55-4.36c-1.7-1.24-4.04-2.36-7.04-3.39s-6.54-2-10.63-2.93s-8.5-1.92-13.23-2.95
		c-4.99-1.09-9.65-2.2-13.98-3.32c-4.33-1.12-8.09-2.36-11.28-3.71c-3.19-1.35-5.71-2.88-7.54-4.59c-1.83-1.71-2.75-3.72-2.75-6.02
		c0-2.82,1.43-5.27,4.29-7.35c2.86-2.08,6.62-3.8,11.28-5.15c4.66-1.35,9.97-2.36,15.92-3.02c5.96-0.66,12.03-0.99,18.22-0.99
		c14.11,0,24.39,0.73,30.85,2.2v8.15c-8.45-2.53-19.3-3.8-32.54-3.8c-3.66,0-7.32,0.17-10.98,0.5c-3.66,0.33-6.92,0.87-9.78,1.62
		c-2.86,0.75-5.19,1.71-6.99,2.89c-1.8,1.18-2.7,2.62-2.7,4.31c0,1.58,0.68,2.95,2.05,4.1c1.36,1.15,3.38,2.2,6.04,3.15
		c2.66,0.95,5.91,1.87,9.73,2.76c3.83,0.89,8.24,1.87,13.23,2.93c5.12,1.09,9.98,2.24,14.58,3.45c4.59,1.21,8.62,2.54,12.08,4.01
		c3.46,1.47,6.2,3.09,8.24,4.87c2.03,1.78,3.04,3.82,3.04,6.12c0,3.05-1.38,5.63-4.14,7.74c-2.76,2.11-6.49,3.83-11.18,5.15
		c-4.69,1.32-10.1,2.28-16.22,2.87c-6.12,0.59-12.58,0.88-19.37,0.88c-2.26,0-5.06-0.08-8.39-0.24c-3.33-0.16-6.72-0.39-10.18-0.69
		c-3.46-0.3-6.74-0.68-9.83-1.12C529.5,862.29,527.02,861.79,525.16,861.25z"/>
	<path class="st5" d="M698.17,864.79c-20.3,0-36.56-2.89-48.77-8.67c-12.21-5.78-18.32-13.3-18.32-22.56
		c0-9.95,6.22-17.88,18.67-23.81c12.44-5.92,29.38-8.88,50.81-8.88c19.77,0,35.69,2.88,47.77,8.63
		c12.08,5.75,18.12,13.27,18.12,22.56c0,10.09-6.19,18.07-18.57,23.94C735.51,861.85,718.93,864.79,698.17,864.79z M699.37,807.42
		c-15.04,0-27.25,2.34-36.64,7.03c-9.38,4.69-14.08,10.84-14.08,18.46c0,7.62,4.57,13.75,13.73,18.39
		c9.15,4.64,21.08,6.97,35.79,6.97c15.71,0,28.09-2.21,37.14-6.64c9.05-4.43,13.58-10.62,13.58-18.59c0-8.17-4.39-14.48-13.18-18.93
		C726.92,809.65,714.81,807.42,699.37,807.42z"/>
	<path class="st5" d="M868.88,863.75h-74.27V801.9h16.77v55.29h57.5V863.75z"/>
	<path class="st5" d="M995.57,838.73c0,17.37-18.14,26.05-54.41,26.05c-34.74,0-52.11-8.35-52.11-25.06V801.9h16.77v37.35
		c0,12.68,12.38,19.02,37.14,19.02c23.89,0,35.84-6.12,35.84-18.37v-38h16.77V838.73z"/>
	<path class="st5" d="M1115.96,808.46h-41.33v55.29h-16.77v-55.29h-41.23v-6.56h99.33V808.46z"/>
	<path class="st5" d="M1169.17,801.9v6.21h-13.98v49.43h13.98v6.21h-44.72v-6.21h13.98v-49.43h-13.98v-6.21H1169.17z"/>
	<path class="st5" d="M1250.53,864.79c-20.3,0-36.56-2.89-48.77-8.67c-12.21-5.78-18.32-13.3-18.32-22.56
		c0-9.95,6.22-17.88,18.67-23.81c12.44-5.92,29.38-8.88,50.81-8.88c19.77,0,35.69,2.88,47.77,8.63
		c12.08,5.75,18.12,13.27,18.12,22.56c0,10.09-6.19,18.07-18.57,23.94C1287.87,861.85,1271.3,864.79,1250.53,864.79z
		 M1251.73,807.42c-15.04,0-27.25,2.34-36.64,7.03c-9.38,4.69-14.08,10.84-14.08,18.46c0,7.62,4.57,13.75,13.73,18.39
		c9.15,4.64,21.08,6.97,35.79,6.97c15.71,0,28.09-2.21,37.14-6.64c9.05-4.43,13.58-10.62,13.58-18.59c0-8.17-4.39-14.48-13.18-18.93
		C1279.28,809.65,1267.17,807.42,1251.73,807.42z"/>
	<path class="st5" d="M1462.38,863.75h-20.57l-73.68-49.3c-1.86-1.24-3.39-2.53-4.59-3.88h-0.6c0.53,1.32,0.8,4.16,0.8,8.5v44.68
		h-16.77V801.9h21.76l71.68,48.52c2.99,2.01,4.92,3.39,5.79,4.14h0.4c-0.67-1.78-1-4.82-1-9.1V801.9h16.77V863.75z"/>
	<path class="st5" d="M1493.22,861.25v-8.54c2.26,0.86,4.97,1.64,8.14,2.33c3.16,0.69,6.49,1.27,9.98,1.75
		c3.49,0.47,7,0.84,10.53,1.1c3.53,0.26,6.79,0.39,9.78,0.39c10.32,0,18.02-0.83,23.11-2.48c5.09-1.65,7.64-4.03,7.64-7.14
		c0-1.67-0.85-3.12-2.55-4.36c-1.7-1.24-4.04-2.36-7.04-3.39c-2.99-1.02-6.54-2-10.63-2.93c-4.09-0.93-8.5-1.92-13.23-2.95
		c-4.99-1.09-9.65-2.2-13.98-3.32c-4.33-1.12-8.09-2.36-11.28-3.71c-3.19-1.35-5.71-2.88-7.54-4.59c-1.83-1.71-2.75-3.72-2.75-6.02
		c0-2.82,1.43-5.27,4.29-7.35c2.86-2.08,6.62-3.8,11.28-5.15c4.66-1.35,9.97-2.36,15.92-3.02c5.96-0.66,12.03-0.99,18.22-0.99
		c14.11,0,24.39,0.73,30.85,2.2v8.15c-8.45-2.53-19.3-3.8-32.54-3.8c-3.66,0-7.32,0.17-10.98,0.5c-3.66,0.33-6.92,0.87-9.78,1.62
		c-2.86,0.75-5.19,1.71-6.99,2.89c-1.8,1.18-2.7,2.62-2.7,4.31c0,1.58,0.68,2.95,2.05,4.1c1.36,1.15,3.38,2.2,6.04,3.15
		c2.66,0.95,5.91,1.87,9.73,2.76c3.83,0.89,8.24,1.87,13.23,2.93c5.12,1.09,9.98,2.24,14.58,3.45c4.59,1.21,8.62,2.54,12.08,4.01
		c3.46,1.47,6.21,3.09,8.24,4.87c2.03,1.78,3.05,3.82,3.05,6.12c0,3.05-1.38,5.63-4.14,7.74c-2.76,2.11-6.49,3.83-11.18,5.15
		c-4.69,1.32-10.1,2.28-16.22,2.87c-6.12,0.59-12.58,0.88-19.37,0.88c-2.26,0-5.06-0.08-8.39-0.24c-3.33-0.16-6.72-0.39-10.18-0.69
		c-3.46-0.3-6.74-0.68-9.83-1.12C1497.57,862.29,1495.08,861.79,1493.22,861.25z"/>
</g>
</svg>
