<?xml version="1.0" encoding="UTF-8" standalone="no"?>
<!-- Generator: Adobe Illustrator 24.1.1, SVG Export Plug-In . SVG Version: 6.00 Build 0)  -->

<svg
   version="1.1"
   id="Layer_1"
   x="0px"
   y="0px"
   viewBox="0 0 1169.23 543.58002"
   xml:space="preserve"
   sodipodi:docname="logo.svg"
   width="1169.23"
   height="543.58002"
   inkscape:version="1.3.1 (91b66b0783, 2023-11-16)"
   xmlns:inkscape="http://www.inkscape.org/namespaces/inkscape"
   xmlns:sodipodi="http://sodipodi.sourceforge.net/DTD/sodipodi-0.dtd"
   xmlns="http://www.w3.org/2000/svg"
   xmlns:svg="http://www.w3.org/2000/svg"><defs
   id="defs48" /><sodipodi:namedview
   id="namedview48"
   pagecolor="#ffffff"
   bordercolor="#666666"
   borderopacity="1.0"
   inkscape:showpageshadow="2"
   inkscape:pageopacity="0.0"
   inkscape:pagecheckerboard="0"
   inkscape:deskcolor="#d1d1d1"
   inkscape:zoom="0.3885"
   inkscape:cx="622.90862"
   inkscape:cy="274.13127"
   inkscape:window-width="1920"
   inkscape:window-height="991"
   inkscape:window-x="-9"
   inkscape:window-y="-9"
   inkscape:window-maximized="1"
   inkscape:current-layer="Layer_1" />
<style
   type="text/css"
   id="style1">
	.st0{display:none;}
	.st1{display:inline;fill:#4D4D4D;}
	.st2{fill:#4D4D4D;}
	.st3{fill:#FFB900;}
	.st4{display:inline;fill:#F15A24;}
</style>
<g
   id="g28"
   transform="translate(-375.21,-725.23)">
	<g
   class="st0"
   id="g11">
		<path
   class="st1"
   d="M 676.55,1234.45 H 661.4 v -6.65 h 37.67 v 6.65 H 684 v 39.45 h -7.44 v -39.45 z"
   id="path1" />
		<path
   class="st1"
   d="m 766.72,1264.22 h -24.96 l -4.35,9.68 h -7.84 l 20.68,-46.1 h 8.04 l 20.68,46.1 h -7.84 z m -12.45,-28.65 -9.75,21.93 h 19.5 z"
   id="path2" />
		<path
   class="st1"
   d="m 850.36,1238.41 c -1.58,-1.58 -3.5,-2.8 -5.76,-3.66 -2.26,-0.86 -4.49,-1.28 -6.68,-1.28 -5.23,0 -9.38,1.71 -12.45,5.14 -3.07,3.43 -4.59,7.66 -4.54,12.71 0,4.66 1.43,8.58 4.28,11.79 2.85,3.21 7.09,4.81 12.71,4.81 4.26,0 8.01,-1.36 11.26,-4.08 v -9.35 h -12.84 v -6.58 h 19.69 v 18.9 c -4.87,5.36 -10.91,8.03 -18.11,8.03 -4.09,0 -7.72,-0.65 -10.9,-1.94 -3.18,-1.29 -5.72,-3.05 -7.61,-5.27 -1.89,-2.22 -3.32,-4.7 -4.28,-7.44 -0.97,-2.75 -1.45,-5.7 -1.45,-8.86 0,-6.98 2.15,-12.83 6.45,-17.55 4.3,-4.72 10.23,-7.08 17.78,-7.08 6.67,0 12.36,2.33 17.06,6.98 z"
   id="path3" />
		<path
   class="st1"
   d="m 905.74,1227.8 v 39.25 h 24.3 v 6.85 h -31.68 v -46.1 z"
   id="path4" />
		<path
   class="st1"
   d="m 969.96,1273.91 v -46.1 h 7.31 v 46.1 z"
   id="path5" />
		<path
   class="st1"
   d="m 1053.6,1260.6 v -32.8 h 7.38 v 46.1 h -5.6 l -26.15,-32.54 v 32.54 h -7.44 v -46.1 h 5.66 z"
   id="path6" />
		<path
   class="st1"
   d="m 1139.54,1273.91 h -34.05 v -46.1 h 33.85 v 7.18 h -26.48 v 12.45 h 25.42 v 6.85 h -25.42 v 12.38 h 26.67 v 7.24 z"
   id="path7" />
		<path
   class="st1"
   d="m 1263.03,1273.91 v -19.17 h -24.37 v 19.17 h -7.38 v -46.1 h 7.38 v 20.09 h 24.37 v -20.09 h 7.31 v 46.1 z"
   id="path8" />
		<path
   class="st1"
   d="m 1348.91,1273.91 h -34.05 v -46.1 h 33.85 v 7.18 h -26.48 v 12.45 h 25.42 v 6.85 h -25.42 v 12.38 h 26.68 z"
   id="path9" />
		<path
   class="st1"
   d="m 1431.1,1273.91 h -8.63 l -14.03,-15.94 h -9.75 v 15.94 h -7.38 v -46.17 c 2.37,0 5.95,0.01 10.74,0.03 4.79,0.02 8.36,0.03 10.74,0.03 5.09,0 9.08,1.48 11.96,4.45 2.88,2.96 4.31,6.51 4.31,10.64 0,3.65 -1.02,6.79 -3.06,9.45 -2.04,2.66 -5.19,4.29 -9.45,4.91 l 13.77,15.35 z m -32.4,-39.39 v 16.73 h 14.03 c 2.9,0 5.09,-0.79 6.59,-2.37 1.49,-1.58 2.24,-3.54 2.24,-5.86 0,-2.28 -0.75,-4.27 -2.24,-5.96 -1.49,-1.69 -3.67,-2.54 -6.52,-2.54 z"
   id="path10" />
		<path
   class="st1"
   d="m 1505.79,1273.91 h -34.05 v -46.1 h 33.85 v 7.18 h -26.48 v 12.45 h 25.42 v 6.85 h -25.42 v 12.38 h 26.67 v 7.24 z"
   id="path11" />
	</g>
	<g
   id="g14">
		<path
   class="st2"
   d="m 1368.16,862.5 c -0.21,-1.1 -0.46,-2.19 -0.7,-3.29 -0.11,-0.56 -0.28,-1.09 -0.44,-1.62 l -0.48,-1.61 c -0.3,-1.09 -0.74,-2.1 -1.13,-3.15 -0.21,-0.52 -0.4,-1.05 -0.62,-1.56 l -0.7,-1.51 c -1.88,-4.02 -4.16,-7.84 -6.79,-11.33 -2.63,-3.5 -5.5,-6.81 -8.63,-9.83 -3.14,-3 -6.44,-5.84 -9.91,-8.44 -6.93,-5.2 -14.42,-9.67 -22.28,-13.36 -7.85,-3.71 -16,-6.87 -24.38,-9.25 l -3.15,-0.89 c -1.05,-0.29 -2.11,-0.54 -3.17,-0.81 -1.06,-0.26 -2.11,-0.55 -3.18,-0.78 l -3.19,-0.7 -1.6,-0.35 -1.64,-0.32 -3.29,-0.62 -0.82,-0.15 -0.77,-0.12 -1.54,-0.24 -3.07,-0.48 -3.38,-0.42 c -1.08,-0.12 -2.16,-0.29 -3.25,-0.37 l -3.26,-0.3 -1.63,-0.15 -1.63,-0.1 -3.26,-0.21 c -1.09,-0.07 -2.18,-0.08 -3.27,-0.13 -1.09,-0.03 -2.18,-0.09 -3.27,-0.09 l -3.27,-0.01 -1.63,-0.01 -1.63,0.04 -3.26,0.09 c -1.09,0.04 -2.17,0.13 -3.26,0.19 -1.09,0.08 -2.17,0.11 -3.26,0.23 -2.17,0.21 -4.33,0.38 -6.49,0.68 -1.08,0.14 -2.16,0.26 -3.23,0.42 -1.08,0.17 -2.15,0.34 -3.22,0.51 -8.57,1.37 -17,3.62 -25.1,6.69 -4.05,1.54 -8,3.36 -11.85,5.37 -3.84,2.05 -7.51,4.43 -11,7.07 -3.5,2.63 -6.74,5.67 -9.66,9.01 -2.92,3.34 -5.46,7.07 -7.42,11.1 -0.45,1.03 -0.9,2.05 -1.35,3.08 -0.4,1.05 -0.75,2.12 -1.11,3.17 -0.19,0.5 -0.34,1.11 -0.49,1.7 l -0.44,1.76 -0.21,0.88 -0.05,0.22 -0.03,0.17 -0.05,0.34 -0.21,1.36 -0.11,0.68 -0.05,0.34 -0.03,0.17 c 0,-0.01 -0.11,0.73 -0.07,0.51 l -0.12,1.64 -0.11,1.63 c -0.05,0.54 0,1.09 -0.01,1.63 l 0.03,1.63 0.02,0.81 0.08,0.8 c 0.12,1.06 0.21,2.13 0.37,3.18 0.65,4.19 1.92,8.13 3.5,11.77 l 0.61,1.35 c 0.2,0.45 0.4,0.9 0.64,1.32 0.46,0.86 0.92,1.71 1.37,2.56 0.48,0.83 1,1.63 1.5,2.43 0.26,0.4 0.5,0.81 0.76,1.19 l 0.81,1.13 c 0.87,1.23 1.78,2.4 2.7,3.54 -32.28,9.96 -70.83,11.42 -90.51,0.6 -9.84,-5.41 -25.24,-17.66 -41.85,-31.56 5.7,-2.5 11.46,-5.7 16.91,-10.04 l 1.1,-0.87 c 0.36,-0.29 0.71,-0.62 1.07,-0.93 0.7,-0.63 1.42,-1.26 2.11,-1.92 0.67,-0.69 1.35,-1.39 2.03,-2.09 0.35,-0.34 0.67,-0.71 0.98,-1.09 l 0.96,-1.13 c 2.52,-3.06 4.84,-6.5 6.62,-10.36 0.44,-0.96 0.82,-1.96 1.23,-2.96 l 0.3,-0.75 0.26,-0.84 0.51,-1.69 0.25,-0.85 0.12,-0.43 c 0.04,-0.14 0.05,-0.23 0.08,-0.35 l 0.29,-1.33 0.29,-1.34 c -0.04,0.23 0.09,-0.49 0.09,-0.5 l 0.03,-0.2 0.05,-0.41 0.1,-0.82 c 0.58,-4.38 0.5,-8.93 -0.28,-13.35 -0.21,-1.1 -0.46,-2.19 -0.7,-3.29 -0.11,-0.56 -0.28,-1.09 -0.44,-1.62 l -0.48,-1.61 c -0.3,-1.09 -0.74,-2.1 -1.14,-3.15 -0.2,-0.52 -0.4,-1.05 -0.62,-1.56 l -0.7,-1.51 c -1.88,-4.02 -4.16,-7.84 -6.8,-11.34 -2.63,-3.5 -5.5,-6.82 -8.63,-9.84 -3.14,-3 -6.44,-5.84 -9.91,-8.45 -6.94,-5.21 -14.44,-9.68 -22.3,-13.37 -7.86,-3.71 -16.01,-6.88 -24.41,-9.25 l -3.15,-0.89 c -1.05,-0.3 -2.11,-0.54 -3.17,-0.81 -1.06,-0.26 -2.12,-0.55 -3.18,-0.78 l -3.2,-0.7 -1.6,-0.35 -1.64,-0.32 -3.3,-0.62 -0.82,-0.15 -0.77,-0.12 -1.54,-0.24 -3.08,-0.49 -3.38,-0.42 c -1.08,-0.12 -2.16,-0.29 -3.25,-0.37 l -3.26,-0.3 -1.63,-0.15 -1.63,-0.1 -3.27,-0.21 c -1.09,-0.07 -2.18,-0.08 -3.27,-0.13 -1.09,-0.03 -2.18,-0.09 -3.27,-0.09 l -3.27,-0.01 -1.63,-0.01 -1.64,0.04 -3.27,0.09 c -1.09,0.04 -2.18,0.13 -3.26,0.19 -1.09,0.08 -2.17,0.12 -3.26,0.23 -2.17,0.21 -4.34,0.38 -6.49,0.68 -1.08,0.14 -2.16,0.26 -3.23,0.42 -1.08,0.17 -2.15,0.34 -3.22,0.51 -8.58,1.38 -17.02,3.62 -25.12,6.69 -4.05,1.54 -8.01,3.36 -11.86,5.38 -3.84,2.05 -7.51,4.44 -11.01,7.08 -3.5,2.63 -6.75,5.67 -9.66,9.02 -2.92,3.35 -5.46,7.08 -7.43,11.11 -0.45,1.03 -0.91,2.06 -1.36,3.08 -0.4,1.05 -0.75,2.12 -1.11,3.17 -0.19,0.5 -0.34,1.11 -0.49,1.7 l -0.44,1.77 -0.21,0.88 -0.05,0.22 -0.03,0.17 -0.05,0.34 -0.21,1.36 -0.11,0.68 -0.05,0.34 -0.03,0.17 c 0,-0.01 -0.11,0.74 -0.07,0.52 l -0.12,1.64 -0.11,1.63 c -0.05,0.55 0,1.09 -0.01,1.63 l 0.03,1.63 0.02,0.81 0.08,0.8 c 0.12,1.07 0.21,2.14 0.37,3.18 0.65,4.2 1.92,8.14 3.5,11.78 l 0.61,1.35 c 0.2,0.45 0.4,0.9 0.64,1.33 0.46,0.86 0.92,1.71 1.37,2.56 0.48,0.83 1,1.63 1.5,2.43 0.26,0.4 0.5,0.81 0.76,1.19 l 0.81,1.13 c 4.31,6.08 9.34,11 14.47,15.16 10.31,8.3 21.02,13.58 30.67,17.38 1.22,0.46 2.39,0.95 3.58,1.35 1.18,0.41 2.35,0.82 3.49,1.22 1.15,0.38 2.28,0.72 3.39,1.07 0.55,0.17 1.1,0.34 1.65,0.51 0.55,0.15 1.09,0.3 1.63,0.45 1.08,0.29 2.13,0.58 3.16,0.86 1.04,0.25 2.05,0.5 3.04,0.74 0.15,0.04 0.29,0.06 0.43,0.1 -1.25,14.71 -2.22,28.09 -2.22,28.09 -0.56,7.45 28.97,12.94 37.96,13.78 8.99,0.84 8.95,-8.88 12.5,-17.84 3.54,-8.95 5.62,-9.94 11.85,-3.46 6.24,6.48 31.04,37.01 29.79,53.6 -0.56,7.32 -10.27,14.7 -22.15,21.17 -0.67,-0.41 -1.35,-0.83 -2.03,-1.21 -4.08,-2.28 -8.32,-4.16 -12.66,-5.7 -4.35,-1.51 -8.79,-2.67 -13.27,-3.54 l -1.69,-0.31 -1.71,-0.28 -0.79,-0.12 -0.88,-0.12 c -0.57,-0.08 -1.13,-0.14 -1.7,-0.21 -2.27,-0.26 -4.55,-0.44 -6.83,-0.54 -2.29,-0.1 -4.58,-0.12 -6.88,-0.06 -2.3,0.07 -4.59,0.25 -6.89,0.51 -2.29,0.27 -4.58,0.61 -6.87,1.08 -1.14,0.22 -2.28,0.49 -3.42,0.77 -1.13,0.29 -2.26,0.62 -3.38,0.97 -4.49,1.42 -8.92,3.29 -13.08,5.95 -2.07,1.34 -4.07,2.86 -5.92,4.63 -1.85,1.77 -3.57,3.77 -4.97,6.07 -1.4,2.29 -2.48,4.85 -3.09,7.54 -0.07,0.34 -0.15,0.66 -0.22,1.05 -0.06,0.37 -0.14,0.8 -0.16,1.01 l -0.05,0.4 -0.01,0.1 -0.02,0.17 -0.01,0.06 -0.02,0.26 c -0.03,0.34 -0.06,0.68 -0.07,1.02 -0.07,1.37 -0.01,2.74 0.16,4.08 0.35,2.68 1.15,5.23 2.23,7.55 1.08,2.33 2.45,4.42 3.97,6.3 1.52,1.89 3.2,3.58 4.96,5.12 1.77,1.53 3.63,2.89 5.54,4.13 1.91,1.24 3.88,2.35 5.9,3.33 2.02,0.98 4.05,1.88 6.13,2.64 2.62,0.97 5.27,1.77 7.95,2.43 -0.78,4.75 -1.23,9.08 -1.42,12.32 -0.76,13.03 10.47,14.76 26.54,16.33 16.08,1.57 13.1,-17.08 17.54,-25.03 3.14,-5.62 14.17,-10.71 25.02,-13.43 0.08,-4.01 0.13,-6.57 0.13,-6.68 0.02,-1.63 0.03,-3.16 0.03,-4.61 0.04,-9.09 0.07,-15.09 2.77,-19.06 0.05,-0.08 0.12,-0.16 0.18,-0.25 2.33,-3.18 8.7,-7.61 11.91,-9.67 0.24,0.44 0.49,1.28 0.39,2.34 -0.09,0.96 -0.48,2.25 -1.85,2.95 -6.59,3.36 -9.2,7.51 -9.63,15.29 -0.33,5.93 -0.98,65.97 -0.98,67.96 0.01,3.69 -0.01,8.27 5.58,8.29 0.09,0 0.17,0 0.25,0 2.05,0.14 4.48,0.12 6.5,-0.06 1.97,-0.17 3.48,-0.47 4.6,-0.91 2.36,-0.92 3.56,-2.56 4.19,-4.26 -0.37,0.36 -0.83,0.67 -1.42,0.91 -2.09,0.82 -6.71,0.96 -9.71,0.76 -1.25,-0.08 -4,0.57 -4.01,-4.89 0,-1 0.87,-30.01 1.53,-49.95 0.8,-0.08 1.59,-0.13 2.34,-0.17 3.01,-0.14 8.54,0.06 15.62,0.48 1.59,-21.52 3.28,-44.36 3.91,-52.8 1.29,-17.11 2.02,-20.95 4.92,-25.68 0.05,-0.08 0.11,-0.16 0.17,-0.24 2.63,-3.98 9.84,-7.33 19.39,-8.98 0.12,-0.02 0.24,-0.04 0.35,-0.05 0.52,-0.04 1.89,-0.16 2.25,2.36 0.28,1.96 -0.5,3.66 -1.04,3.88 -1.73,0.2 -11.12,1.6 -16.51,8.23 -1.08,1.33 -3.61,4.44 -8.25,56.34 -2.31,25.87 -4.26,55.01 -4.34,64.96 -0.12,14.8 -5.29,15.25 -8.38,15.52 -0.57,0.05 -1.15,0.08 -1.71,0.11 l -0.63,0.03 c -3.17,0.17 -10.96,0 -14.58,-0.54 -1.29,-0.19 -2.27,-0.51 -3,-1.02 1.17,2.13 3.28,3.41 6.48,3.88 3.82,0.56 11.86,0.75 15.22,0.57 5.3,-0.28 13.63,0.07 13.79,-18.86 0.06,-7.38 1.2,-26.3 2.84,-46.98 3.77,0.28 7.76,0.6 11.89,0.94 1.44,-8.53 2.79,-17.54 3.23,-19.81 0.85,-4.34 4,-6.47 8.27,-5.9 3.47,0.47 10.69,1.87 13.13,2.42 l 3.68,0.62 1.02,-10.1 c -6.8,-1.57 -8.41,-8.36 -8.54,-14.56 7.68,-4.31 19.48,-2.82 27.48,1.59 -9.25,-2.69 -21.38,-2.32 -24.36,0.34 0.13,6.2 4.63,9.89 8.5,10.42 l -2.3,19.03 -2.77,-4.16 c -2.32,-0.52 -8.95,-1.82 -12.58,-2.34 -0.5,0.15 -0.95,0.34 -1.27,0.58 -1.55,1.15 2.6,8 5.59,9.12 2.37,0.88 12.08,4.1 24.94,5.68 0,0 -18.19,-1.57 -21.47,-1.97 -3.4,-0.42 -4.85,1.9 -6.15,6.89 v 0 c -1.12,4.29 -3.23,13.14 -3.79,15.51 -0.09,0.38 -0.14,0.6 -0.14,0.6 0,0 0.05,-0.22 0.14,-0.6 0.43,-1.82 1.24,-7.38 1.57,-12.34 0.25,-3.78 0.21,-7.21 -0.51,-8.36 -1.83,-2.96 -4.1,-5.9 -8.13,-7.12 -1.03,5.69 -3.26,18.65 -4.98,26.46 -1.32,5.98 3.01,13.28 6.52,16.47 1.24,1.12 5.61,2.13 6.08,2.17 3.37,0.28 12.09,0.96 21.04,1.66 -0.02,-0.01 -0.05,-0.03 -0.08,-0.04 1.66,0.2 3.47,0.36 5.47,0.46 -4.65,-2.88 -5.8,-14.33 -3.13,-20.85 2.54,-6.19 -7.38,-15.11 -13.02,-4.92 2.15,-6.58 6.98,-11.95 13.15,-13.15 1.69,-0.33 3.26,-0.4 4.7,-0.24 -1.8,0.5 -3.28,1.26 -3.66,2.39 -1.11,3.37 6.02,4.63 8.46,4.41 2.44,-0.21 8.68,-2.42 15.09,5.39 1.37,2.53 2.09,5.77 2.08,9.52 -0.03,7.01 -4.27,14.63 -9.97,18.49 1.32,0.1 2.45,0.19 3.35,0.25 0.68,0.05 1.24,0.09 1.63,0.12 3.78,0.86 6.53,-16.88 8.28,-27.37 4.57,0.65 9.2,1.91 13.81,3.63 0,-0.63 0,-1.25 0,-1.87 0,-1.03 0,-2.05 0,-3.07 0,-1.38 -0.04,-2.79 -0.13,-4.2 -0.66,-10.68 -3.95,-21.81 -10.44,-25.44 l -0.07,-0.04 -0.07,-0.04 c -0.79,-0.39 -1.38,-0.86 -1.77,-1.38 -0.48,-0.63 -0.66,-1.34 -0.49,-2.08 0.17,-0.74 0.73,-1.56 1.6,-1.72 0.48,-0.09 1.03,0.04 1.62,0.35 0.16,0.08 0.32,0.17 0.48,0.28 1.28,0.87 13.92,9.03 13.31,36.6 -0.45,20.39 -0.74,44.36 -1.38,49.33 -0.79,6.08 -0.09,7.1 3.48,6.82 0,0 2.9,-0.08 6.41,-0.19 -1.74,-0.48 -2.91,-1.37 -3.1,-4.25 -0.26,-3.89 -0.51,-25.51 -0.16,-45.09 6.35,3.11 12.56,6.84 18.39,10.72 -0.2,-25.91 -0.77,-61.33 -1.06,-67.66 -0.01,-0.16 -0.02,-0.31 -0.03,-0.47 -0.61,-11.38 -4.38,-15.18 -10.04,-19.62 -4.75,-3.72 -9.68,-7.37 -11.58,-8.76 -0.17,-0.12 -0.32,-0.23 -0.44,-0.32 -0.3,-0.62 -0.15,-1.83 0.39,-3.1 0.89,-2.07 2.51,-3.65 3.47,-3.82 0.11,-0.02 0.23,-0.03 0.41,0.07 0.14,0.1 0.4,0.29 0.76,0.56 2.49,1.82 9.67,7.16 12.7,10.22 l 0.76,0.76 c 7.08,7.13 10.98,11.05 10.4,19.54 -0.31,4.55 0.04,20.51 -0.25,47.39 -0.29,27.48 -0.43,58.6 -0.82,61.59 0,0 -0.78,6.76 -6.05,6.99 -6.46,0.27 -20.24,0.89 -25.35,-0.18 -0.6,-0.13 -1.09,-0.23 -1.47,-0.31 -0.93,-0.19 -1.83,-1.04 -2.29,-2.57 -0.29,5.19 2.16,8.08 4.9,8.63 3.76,0.76 20.06,1.35 27.79,0.53 7.73,-0.82 8.38,-6.02 9.21,-9.89 0.28,-1.31 0.42,-14.41 0.51,-31.14 8.66,6.44 15.81,12.34 20.36,15.45 12.64,8.63 3.79,15.61 3.22,24.57 -0.57,8.96 18.75,13.77 27.71,11.1 5.8,-1.73 8.49,-14.41 9.05,-25.94 0.51,-0.01 1.03,-0.02 1.56,-0.04 2.38,-0.08 4.93,-0.3 7.61,-0.72 1.34,-0.21 2.71,-0.46 4.12,-0.77 1.4,-0.32 2.83,-0.71 4.28,-1.17 2.9,-0.91 5.9,-2.11 8.86,-3.84 2.96,-1.71 5.93,-3.91 8.46,-6.93 1.27,-1.5 2.42,-3.21 3.35,-5.11 0.46,-0.95 0.88,-1.94 1.21,-2.98 0.16,-0.53 0.31,-1.01 0.45,-1.63 l 0.1,-0.45 0.07,-0.34 0.07,-0.31 0.03,-0.16 c -0.01,0.08 0.03,-0.19 0.03,-0.2 l 0.02,-0.1 c 0.75,-4.37 0.15,-9.07 -1.49,-13.15 -1.63,-4.11 -4.11,-7.7 -6.93,-10.82 -2.86,-3.1 -6.08,-5.76 -9.5,-8.07 -6.85,-4.62 -14.48,-7.86 -22.32,-10.03 -7.85,-2.16 -15.92,-3.26 -23.94,-3.27 -8.01,-0.02 -15.96,1.1 -23.41,3.55 -0.11,0.04 -0.22,0.08 -0.34,0.12 -2.15,-2.03 -3.9,-3.71 -5.03,-4.86 -2.53,-2.56 -5.11,-5.28 -7.37,-8.1 0.08,-12.1 0.18,-21.37 0.36,-24.04 0.12,-1.83 0.06,-3.48 -0.17,-5.01 11.54,-9.43 37.47,-22.34 54.87,-27.61 0.87,0.24 1.73,0.47 2.57,0.7 1.04,0.25 2.05,0.5 3.04,0.74 1.97,0.51 3.88,0.86 5.68,1.23 3.61,0.71 6.85,1.24 9.67,1.59 1.89,0.28 3.59,0.45 5.1,0.6 3.47,4.31 5.99,9.63 9.32,13.28 6.91,7.57 26.7,5.37 32.58,-4.46 0.63,-1.06 1.19,-2.42 1.68,-4.01 4.29,0.03 8.92,-0.14 13.86,-0.61 10.32,-0.99 22.06,-3.1 34.26,-8.22 6.08,-2.57 12.27,-5.91 18.09,-10.56 l 1.1,-0.87 c 0.36,-0.29 0.71,-0.62 1.06,-0.93 0.7,-0.63 1.42,-1.26 2.11,-1.92 0.67,-0.69 1.35,-1.39 2.03,-2.09 0.35,-0.34 0.67,-0.71 0.98,-1.09 l 0.96,-1.13 c 2.52,-3.06 4.84,-6.5 6.62,-10.35 0.44,-0.96 0.82,-1.96 1.23,-2.95 l 0.3,-0.75 0.26,-0.84 0.51,-1.69 0.24,-0.85 0.12,-0.43 c 0.04,-0.14 0.05,-0.23 0.08,-0.35 l 0.29,-1.33 0.29,-1.33 c -0.04,0.23 0.09,-0.49 0.09,-0.5 l 0.03,-0.2 0.05,-0.41 0.1,-0.82 c 0.64,-4.43 0.57,-8.98 -0.21,-13.4 z M 928.57,816.46 c -5.3,10.44 -10.49,57.04 -5.13,61.42 6.05,4.95 23.13,10.72 23.57,10.68 0,0 -30.5,-4.16 -30.88,-9.14 -0.88,-11.68 1.18,-52.61 6.38,-64.95 6.42,-15.24 18.82,-20.14 26.29,-15.9 -13.66,2.81 -16.62,10.79 -20.23,17.89 z m -7.87,183.02 c -0.3,-0.14 -0.62,-0.27 -0.92,-0.42 -1.88,-0.9 -3.73,-1.86 -5.51,-2.9 -1.79,-1.04 -3.53,-2.12 -5.19,-3.29 -1.66,-1.18 -3.26,-2.4 -4.78,-3.7 -1.51,-1.3 -2.92,-2.69 -4.21,-4.13 -1.29,-1.44 -2.46,-2.95 -3.43,-4.51 -0.97,-1.57 -1.77,-3.18 -2.33,-4.8 -0.56,-1.62 -0.86,-3.24 -0.89,-4.8 -0.07,-3.14 0.89,-6.07 2.78,-8.61 1.86,-2.56 4.6,-4.77 7.75,-6.51 3.15,-1.75 6.68,-3.11 10.37,-4.08 3.7,-0.96 7.53,-1.63 11.43,-1.96 3.9,-0.32 7.84,-0.38 11.79,-0.17 1.97,0.1 3.94,0.28 5.91,0.53 0.49,0.06 0.98,0.13 1.47,0.19 l 1.5,0.22 1.45,0.22 1.46,0.25 c 3.89,0.71 7.73,1.69 11.45,2.93 1.43,0.46 2.84,0.98 4.24,1.53 -10.87,4.84 -21.29,8.71 -26.69,10.93 -9.65,3.99 -15,19.51 -17.65,33.08 z m 58.21,-40.74 c -24.38,11.67 -28.98,12.57 -36.02,15.94 -12.5,5.98 -18.4,46.22 -13.53,48.32 0,0 -7.27,-0.98 -6.66,-8.9 0.65,-8.32 4.53,-38.39 17.25,-43.31 7.61,-2.94 21.55,-9.99 37.69,-16.98 16.14,-6.99 29.06,-17.95 30.1,-28.72 6.05,16.43 -26.21,32.4 -28.83,33.65 z M 962.58,799.53 c -28.44,-21.61 -44.33,6.2 -46.65,17.55 -1.02,5.02 -2.34,18.13 -3.49,31.17 -0.76,-0.3 -1.52,-0.6 -2.31,-0.9 -0.95,-0.41 -1.93,-0.82 -2.92,-1.24 -0.5,-0.21 -1,-0.42 -1.5,-0.64 -0.5,-0.23 -1,-0.46 -1.51,-0.7 -1.02,-0.47 -2.06,-0.93 -3.11,-1.43 -1.04,-0.51 -2.1,-1.04 -3.17,-1.57 -1.08,-0.51 -2.14,-1.13 -3.23,-1.7 -4.34,-2.36 -8.87,-5.01 -13.35,-8.15 -4.48,-3.14 -8.98,-6.68 -13.15,-10.8 -0.52,-0.51 -1.04,-1.03 -1.57,-1.55 -0.5,-0.54 -1,-1.08 -1.51,-1.62 -1.04,-1.06 -1.96,-2.22 -2.93,-3.36 -1.85,-2.33 -3.66,-4.76 -5.14,-7.36 l -0.58,-0.97 c -0.19,-0.33 -0.35,-0.66 -0.52,-0.99 -0.33,-0.67 -0.7,-1.32 -1.03,-2 -0.3,-0.68 -0.6,-1.36 -0.9,-2.04 -0.16,-0.34 -0.29,-0.69 -0.41,-1.04 l -0.38,-1.05 c -0.97,-2.8 -1.66,-5.67 -1.88,-8.57 -0.05,-0.72 -0.05,-1.45 -0.08,-2.17 l -0.02,-0.54 0.03,-0.54 0.06,-1.08 c 0.03,-0.36 0.01,-0.72 0.07,-1.08 l 0.15,-1.07 0.13,-0.99 0.02,-0.08 0.07,-0.33 0.15,-0.67 0.29,-1.35 0.07,-0.34 0.04,-0.17 0.04,-0.11 0.16,-0.45 0.3,-0.9 c 0.1,-0.3 0.17,-0.59 0.34,-0.95 0.3,-0.68 0.56,-1.37 0.86,-2.04 0.34,-0.66 0.68,-1.33 1.03,-1.99 3.01,-5.21 7.54,-9.95 13.16,-13.8 2.81,-1.93 5.83,-3.66 9.02,-5.24 3.21,-1.54 6.55,-2.95 10.03,-4.14 3.49,-1.16 7.05,-2.24 10.73,-3.05 1.82,-0.46 3.69,-0.79 5.54,-1.19 0.94,-0.16 1.88,-0.32 2.81,-0.49 0.94,-0.17 1.88,-0.33 2.83,-0.44 0.95,-0.13 1.9,-0.26 2.85,-0.39 0.95,-0.12 1.91,-0.21 2.87,-0.31 1.91,-0.23 3.85,-0.34 5.78,-0.49 0.96,-0.09 1.94,-0.1 2.91,-0.15 0.97,-0.04 1.94,-0.09 2.91,-0.11 l 2.92,-0.05 1.46,-0.03 1.47,0.02 2.93,0.03 c 0.98,0.01 1.96,0.07 2.94,0.1 0.98,0.05 1.96,0.07 2.94,0.13 l 2.94,0.21 1.47,0.1 1.47,0.14 2.94,0.29 c 0.98,0.08 1.96,0.24 2.93,0.36 l 2.79,0.36 3.08,0.47 1.54,0.23 0.77,0.12 0.71,0.13 2.83,0.52 1.41,0.26 1.44,0.31 2.88,0.61 c 0.96,0.21 1.91,0.46 2.86,0.69 0.95,0.24 1.91,0.45 2.85,0.71 l 2.83,0.78 c 7.53,2.12 14.86,4.72 21.84,7.87 0.88,0.38 1.74,0.79 2.6,1.21 0.86,0.42 1.71,0.83 2.57,1.25 0.84,0.44 1.67,0.88 2.51,1.32 l 1.25,0.66 1.22,0.7 c 3.31,1.79 6.43,3.82 9.47,5.9 3.02,2.1 5.83,4.38 8.49,6.75 2.62,2.4 5.05,4.9 7.22,7.53 4.34,5.25 7.37,11.06 8.83,16.89 0.7,2.93 0.92,5.87 0.73,8.76 l -0.03,0.54 -0.01,0.27 -0.01,0.14 c -0.01,0.11 0.08,-0.5 0.03,-0.16 l -0.21,1.35 -0.21,1.35 c -0.02,0.1 -0.03,0.24 -0.05,0.32 l -0.06,0.23 -0.12,0.46 -0.22,0.92 -0.1,0.46 -0.17,0.51 c -0.23,0.68 -0.43,1.38 -0.68,2.06 -1.01,2.72 -2.47,5.29 -4.17,7.71 l -0.65,0.9 c -0.21,0.3 -0.43,0.6 -0.68,0.88 -0.48,0.57 -0.96,1.15 -1.43,1.72 -0.5,0.56 -1.03,1.08 -1.54,1.63 -0.26,0.27 -0.5,0.55 -0.77,0.81 l -0.82,0.77 c -2.14,2.09 -4.55,3.93 -6.97,5.65 -1.25,0.82 -2.46,1.69 -3.75,2.42 -0.64,0.38 -1.27,0.76 -1.9,1.14 -0.65,0.36 -1.29,0.71 -1.93,1.06 -1.07,0.58 -2.14,1.13 -3.22,1.66 -19.4,-16.46 -39.36,-33.87 -53.37,-44.52 z m 222.38,196.53 c 1.65,-0.18 3.33,-0.27 5.02,-0.36 1.69,-0.05 3.39,-0.08 5.11,-0.03 6.85,0.17 13.87,1.1 20.6,2.87 6.73,1.77 13.23,4.35 18.89,7.8 2.83,1.71 5.42,3.68 7.62,5.83 2.22,2.13 4.03,4.47 5.19,6.88 1.17,2.41 1.72,4.83 1.54,7.23 -0.18,2.38 -1.01,4.72 -2.45,6.85 -1.43,2.12 -3.36,4.05 -5.51,5.67 -1.07,0.82 -2.2,1.56 -3.36,2.25 -1.15,0.69 -2.33,1.32 -3.51,1.89 -1.19,0.57 -2.39,1.08 -3.58,1.55 -1.19,0.47 -2.38,0.9 -3.55,1.28 -1.17,0.38 -2.33,0.72 -3.47,1.02 -1.14,0.31 -2.26,0.58 -3.35,0.82 -0.29,0.06 -0.56,0.11 -0.85,0.17 0,-4.46 -0.33,-8.45 -0.92,-11.17 -1.52,-7 -20.92,-26.02 -35.91,-40.23 0.82,-0.12 1.65,-0.22 2.49,-0.32 z m 41.46,-80.62 c -1.03,-0.37 -2.11,-0.76 -3.2,-1.17 0.1,-0.01 0.21,-0.04 0.31,-0.05 6.91,-0.9 11.43,1.47 14.92,5.05 -3.29,-0.94 -7.34,-2.18 -12.03,-3.83 z m 44.31,10.84 c -0.71,8.71 -15.43,9.1 -17.95,4.37 -4.18,-7.84 -8.45,-18.46 -21.2,-21.06 10.19,-1.62 20.49,7.82 24.64,16.15 1.83,3.68 7.4,2.67 7.83,-0.29 2.06,-14.04 -5.66,-55.03 -21.86,-57.45 -10.99,-1.64 -54.84,18.49 -78.65,25.37 -15.99,4.61 -49.59,10.03 -68.71,3.29 31.28,4.33 45.83,-2.02 66.85,-8.26 22.11,-6.57 69.02,-27.63 86.81,-29.44 20.26,-2.06 23.63,50.36 22.24,67.32 z m 82.9,-52 -0.03,0.55 -0.01,0.27 -0.01,0.14 c -0.01,0.11 0.08,-0.5 0.03,-0.16 l -0.21,1.35 -0.21,1.35 c -0.02,0.11 -0.03,0.24 -0.05,0.32 l -0.06,0.23 -0.12,0.46 -0.22,0.92 -0.1,0.46 -0.17,0.51 c -0.23,0.68 -0.43,1.38 -0.67,2.06 -1.01,2.71 -2.47,5.28 -4.17,7.7 l -0.65,0.9 c -0.21,0.3 -0.43,0.6 -0.68,0.88 -0.48,0.57 -0.95,1.14 -1.43,1.71 -0.5,0.56 -1.03,1.08 -1.54,1.63 -0.26,0.27 -0.5,0.55 -0.77,0.81 l -0.82,0.77 c -2.14,2.09 -4.54,3.92 -6.96,5.65 -1.25,0.82 -2.46,1.68 -3.74,2.42 -0.64,0.38 -1.27,0.76 -1.9,1.14 -0.65,0.35 -1.29,0.71 -1.93,1.06 -5.14,2.8 -10.44,4.97 -15.61,6.74 -5.17,1.78 -10.24,3.08 -15.06,4.14 -1.21,0.25 -2.39,0.54 -3.57,0.74 -1.18,0.21 -2.34,0.42 -3.48,0.63 -1.14,0.19 -2.27,0.34 -3.38,0.51 -0.33,0.05 -0.64,0.1 -0.96,0.15 2.63,-14.66 2.09,-38.48 0.17,-49.32 -2.46,-13.91 -5.43,-22.69 -28.76,-21.24 -23.32,1.45 -49.55,12.7 -83.93,27.4 -1.04,0.45 -2.1,0.88 -3.17,1.31 -1.53,-1.97 -2.99,-4.01 -4.23,-6.19 l -0.58,-0.96 c -0.19,-0.33 -0.34,-0.66 -0.52,-0.99 -0.33,-0.67 -0.7,-1.32 -1.02,-2 -0.3,-0.68 -0.6,-1.36 -0.9,-2.04 -0.16,-0.34 -0.29,-0.68 -0.41,-1.04 l -0.38,-1.04 c -0.97,-2.79 -1.66,-5.67 -1.88,-8.56 -0.05,-0.72 -0.04,-1.45 -0.08,-2.17 l -0.02,-0.54 0.04,-0.54 0.06,-1.08 c 0.03,-0.36 0.01,-0.72 0.07,-1.08 l 0.15,-1.07 0.13,-0.98 0.02,-0.09 0.07,-0.34 0.14,-0.67 0.29,-1.34 0.07,-0.34 0.04,-0.17 0.04,-0.11 0.16,-0.45 0.3,-0.9 c 0.1,-0.3 0.17,-0.59 0.34,-0.95 0.29,-0.67 0.55,-1.36 0.86,-2.04 0.34,-0.66 0.68,-1.32 1.03,-1.99 3.01,-5.2 7.54,-9.93 13.15,-13.78 2.81,-1.92 5.83,-3.66 9.01,-5.23 3.21,-1.54 6.54,-2.95 10.02,-4.13 3.48,-1.16 7.04,-2.24 10.72,-3.05 1.82,-0.46 3.69,-0.79 5.53,-1.19 0.94,-0.16 1.87,-0.33 2.81,-0.49 0.94,-0.17 1.88,-0.33 2.83,-0.44 0.95,-0.13 1.9,-0.26 2.85,-0.39 0.95,-0.12 1.91,-0.2 2.87,-0.31 1.91,-0.23 3.84,-0.33 5.77,-0.49 0.96,-0.09 1.94,-0.1 2.9,-0.15 0.97,-0.04 1.94,-0.09 2.91,-0.12 l 2.92,-0.05 1.46,-0.03 1.46,0.02 2.93,0.03 c 0.98,0.01 1.96,0.07 2.94,0.1 0.98,0.05 1.96,0.07 2.94,0.13 l 2.94,0.21 1.47,0.1 1.47,0.14 2.94,0.29 c 0.98,0.08 1.95,0.24 2.93,0.36 l 2.79,0.36 3.08,0.47 1.54,0.23 0.77,0.12 0.71,0.13 2.82,0.52 1.41,0.26 1.44,0.31 2.88,0.61 c 0.96,0.21 1.91,0.46 2.86,0.68 0.95,0.24 1.91,0.45 2.85,0.71 l 2.83,0.78 c 7.52,2.12 14.85,4.72 21.82,7.86 0.88,0.38 1.74,0.79 2.59,1.21 0.86,0.42 1.71,0.83 2.57,1.24 0.84,0.44 1.67,0.88 2.51,1.32 l 1.25,0.66 1.22,0.7 c 3.31,1.79 6.43,3.81 9.46,5.89 3.01,2.1 5.82,4.37 8.48,6.74 2.62,2.4 5.05,4.9 7.21,7.52 4.33,5.24 7.37,11.04 8.82,16.87 0.68,2.93 0.9,5.86 0.7,8.76 z"
   id="path12" />
		<path
   class="st2"
   d="m 1099.59,1009.65 c 0.03,-8.32 -4.52,-13.44 -12.17,-11.96 -1.43,0.28 -2.77,0.85 -4,1.64 0.59,-0.24 1.19,-0.44 1.82,-0.56 6.86,-1.33 10.94,3.26 10.91,10.72 -0.03,6.67 -5.46,14.15 -11.56,14.81 -2.95,0.32 -5.02,-0.47 -6.47,-1.85 1.57,2.54 4.23,4.21 8.58,3.74 6.8,-0.75 12.86,-9.09 12.89,-16.54 z"
   id="path13" />
		<path
   class="st2"
   d="m 1084.54,1020.96 c 4.76,-0.52 9,-6.35 9.02,-11.56 0.02,-5.82 -3.16,-9.41 -8.51,-8.37 -1.69,0.33 -3.2,1.24 -4.43,2.5 -1.92,2.81 -2.99,6.45 -2.82,10.07 0.08,1.74 0.37,3.53 0.99,5.11 1.12,1.58 2.93,2.56 5.75,2.25 z m 4.11,-17.46 c 1.08,-0.37 2.41,0.62 2.96,2.22 0.55,1.6 0.13,3.2 -0.96,3.58 -1.09,0.38 -2.41,-0.62 -2.96,-2.22 -0.55,-1.6 -0.13,-3.2 0.96,-3.58 z"
   id="path14" />
	</g>
	<path
   class="st3"
   d="m 889.78,936.15 c -265.03,5.51 -514.57,113.43 -514.57,203.87 0,51.45 67.92,97.57 175.28,128.79 -71.08,-28.13 -113.96,-64.56 -113.96,-104.35 0,-84.8 221.68,-152.18 469.08,-158.7 -23.02,-0.83 -58.17,-36.21 -15.83,-69.61 z"
   id="path15" />
	<g
   class="st0"
   id="g27">
		<path
   class="st1"
   d="m 590.65,1108.01 c 13.46,0 23.15,2.79 29.08,8.38 6.18,5.67 9.27,15.19 9.27,28.57 v 19.93 c 0,13.46 -2.5,23.11 -7.49,28.95 -5.33,6.26 -14.47,9.4 -27.43,9.4 H 542.4 v -95.23 z m -0.63,73.13 c 8.55,0 12.82,-5.42 12.82,-16.25 v -19.93 c 0,-5.93 -1.02,-9.94 -3.05,-12.06 -1.86,-1.86 -5.12,-2.79 -9.78,-2.79 H 567.8 v 51.04 h 22.22 z"
   id="path16" />
		<path
   class="st1"
   d="m 690.45,1108.01 c 5.92,0.08 10.71,0.51 14.35,1.27 4.23,0.93 7.66,2.37 10.28,4.32 5.42,4.23 8.13,11.98 8.13,23.24 v 5.58 l -0.25,5.08 c -0.34,3.39 -1.02,6.18 -2.03,8.38 -2.29,4.91 -7.53,8.34 -15.74,10.29 v 1.02 c 11.43,0.42 17.14,6.05 17.14,16.89 v 19.17 h -25.39 v -13.33 c 0.25,-7.96 -3.22,-11.93 -10.41,-11.93 h -19.68 v 25.27 h -25.39 v -95.23 h 48.99 z m 5.46,44.44 c 0.51,-1.02 0.85,-2.54 1.02,-4.57 0.08,-0.84 0.13,-1.9 0.13,-3.17 v -3.68 c 0,-4.32 -0.72,-7.2 -2.16,-8.63 -1.44,-1.52 -4.23,-2.28 -8.38,-2.28 h -19.68 v 25.77 h 19.68 c 4.99,-0.01 8.12,-1.16 9.39,-3.44 z"
   id="path17" />
		<path
   class="st1"
   d="m 744.92,1197.52 c -8.21,-5.33 -12.32,-14.81 -12.32,-28.44 v -26.92 c 0,-13.63 4.1,-23.11 12.32,-28.44 3.72,-2.37 8.38,-4.11 13.97,-5.21 4.83,-0.85 10.75,-1.27 17.78,-1.27 7.03,0 12.95,0.42 17.78,1.27 5.59,1.1 10.24,2.84 13.97,5.21 8.21,5.33 12.32,14.81 12.32,28.44 v 26.92 c 0,13.63 -4.1,23.11 -12.32,28.44 -3.72,2.37 -8.38,4.11 -13.97,5.21 -4.82,0.85 -10.75,1.27 -17.78,1.27 -7.03,0 -12.95,-0.42 -17.78,-1.27 -5.59,-1.1 -10.25,-2.84 -13.97,-5.21 z m 49.64,-31.23 v -21.46 c 0,-6.69 -1.31,-11.05 -3.94,-13.08 -2.2,-1.61 -6.86,-2.41 -13.97,-2.41 -7.03,0 -11.6,0.8 -13.71,2.41 -2.62,2.03 -4.02,6.39 -4.19,13.08 v 21.46 c 0.17,6.77 1.57,11.13 4.19,13.08 2.12,1.69 6.69,2.54 13.71,2.54 7.11,0 11.77,-0.85 13.97,-2.54 2.63,-1.95 3.94,-6.31 3.94,-13.08 z"
   id="path18" />
		<path
   class="st1"
   d="M 832.66,1203.23 V 1108 h 42.92 l 27.3,73.13 h 1.02 L 902.38,1108 h 25.39 v 95.23 h -43.3 l -26.92,-73.13 h -1.02 l 1.52,73.13 z"
   id="path19" />
		<path
   class="st1"
   d="m 1009.65,1146.23 v 17.65 h -40.63 v 18.54 h 44.18 v 20.82 h -69.58 v -95.23 h 68.69 v 20.82 h -43.3 v 17.4 z"
   id="path20" />
		<path
   class="st4"
   d="m 1129.48,1151.56 c 4.66,3.47 6.98,10.54 6.98,21.2 v 5.84 c -0.08,2.2 -0.25,4.1 -0.51,5.71 -0.68,4.06 -2.16,7.36 -4.44,9.9 -2.71,3.13 -6.77,5.5 -12.19,7.11 -6.09,1.78 -14.14,2.67 -24.12,2.67 -3.72,0 -6.64,-0.04 -8.76,-0.13 -2.96,-0.08 -5.54,-0.21 -7.75,-0.38 -5.33,-0.59 -9.61,-1.82 -12.82,-3.68 -7.36,-4.23 -11.05,-13.42 -11.05,-27.55 h 24.38 c 0,4.74 1.1,7.79 3.3,9.14 1.95,1.18 6.18,1.78 12.7,1.78 6.35,0 10.5,-0.47 12.44,-1.4 2.29,-1.1 3.43,-3.55 3.43,-7.36 0,-3.98 -0.72,-6.39 -2.16,-7.24 -1.18,-0.68 -4.91,-1.23 -11.17,-1.65 l -13.97,-1.02 c -2.88,-0.17 -5.33,-0.42 -7.36,-0.76 -4.99,-0.68 -8.89,-1.82 -11.68,-3.43 -6.52,-3.64 -9.78,-11.64 -9.78,-24 0,-12.53 3.6,-20.78 10.79,-24.76 3.22,-1.78 7.45,-2.96 12.7,-3.55 2.29,-0.34 4.91,-0.55 7.87,-0.64 2.37,-0.08 5.33,-0.13 8.89,-0.13 3.3,0 5.84,0.04 7.62,0.13 2.71,0 5.12,0.13 7.24,0.38 4.99,0.42 9.1,1.4 12.32,2.92 3.64,1.78 6.43,4.45 8.38,8 2.03,3.89 3.05,8.97 3.05,15.24 v 3.94 h -24.38 c 0,-4.49 -1.1,-7.32 -3.3,-8.51 -1.52,-0.85 -5.16,-1.27 -10.92,-1.27 -6.35,0 -10.54,0.68 -12.57,2.03 -1.52,1.1 -2.29,3.13 -2.29,6.09 0,3.47 0.89,5.75 2.67,6.85 1.18,0.68 3.77,1.19 7.74,1.52 l 10.54,0.76 c 14.47,1.04 23.87,3.12 28.18,6.25 z"
   id="path21" />
		<path
   class="st4"
   d="m 1215.18,1146.23 v 17.65 h -40.63 v 18.54 h 44.19 v 20.82 h -69.58 v -95.23 h 68.69 v 20.82 h -43.3 v 17.4 z"
   id="path22" />
		<path
   class="st4"
   d="m 1283.37,1108.01 c 5.93,0.08 10.71,0.51 14.35,1.27 4.23,0.93 7.66,2.37 10.28,4.32 5.42,4.23 8.13,11.98 8.13,23.24 v 5.58 l -0.25,5.08 c -0.34,3.39 -1.02,6.18 -2.03,8.38 -2.29,4.91 -7.53,8.34 -15.74,10.29 v 1.02 c 11.43,0.42 17.14,6.05 17.14,16.89 v 19.17 h -25.39 v -13.33 c 0.25,-7.96 -3.22,-11.93 -10.41,-11.93 h -19.68 v 25.27 h -25.39 v -95.23 h 48.99 z m 5.46,44.44 c 0.51,-1.02 0.85,-2.54 1.02,-4.57 0.08,-0.84 0.13,-1.9 0.13,-3.17 v -3.68 c 0,-4.32 -0.72,-7.2 -2.16,-8.63 -1.44,-1.52 -4.23,-2.28 -8.38,-2.28 h -19.68 v 25.77 h 19.68 c 4.98,-0.01 8.12,-1.16 9.39,-3.44 z"
   id="path23" />
		<path
   class="st4"
   d="m 1415.54,1108.01 -27.81,95.23 h -39.61 l -26.92,-95.23 h 25.78 l 20.57,73.39 h 0.76 l 20.95,-73.39 z"
   id="path24" />
		<path
   class="st4"
   d="M 1421.38,1203.23 V 1108 h 25.39 v 95.23 z"
   id="path25" />
		<path
   class="st4"
   d="m 1542.89,1169.97 c 0,3.3 -0.04,5.84 -0.13,7.62 -0.17,2.71 -0.51,5.08 -1.02,7.11 -1.19,4.99 -3.72,9.1 -7.62,12.31 -3.81,3.13 -8.55,5.16 -14.22,6.09 -2.2,0.42 -4.83,0.68 -7.87,0.76 -1.19,0.09 -2.54,0.13 -4.06,0.13 h -4.06 c -3.89,0 -7.03,-0.04 -9.4,-0.13 -3.22,-0.08 -6.05,-0.29 -8.51,-0.63 -5.84,-0.68 -10.58,-2.07 -14.22,-4.19 -4.15,-2.46 -7.28,-6.05 -9.4,-10.79 -2.2,-5.16 -3.3,-11.94 -3.3,-20.31 v -24.63 c 0,-14.64 3.98,-24.59 11.93,-29.84 3.64,-2.37 8.34,-4.06 14.09,-5.08 4.83,-0.76 11.09,-1.14 18.79,-1.14 7.36,0 13.04,0.3 17.01,0.89 5.08,0.68 9.1,2.03 12.06,4.06 6.26,4.15 9.52,12.91 9.78,26.28 v 3.68 h -26.16 v -3.68 c -0.42,-3.89 -2.03,-6.48 -4.82,-7.74 -2.03,-0.93 -5.59,-1.4 -10.67,-1.4 -6.94,0 -11.39,1.31 -13.33,3.93 -1.69,2.2 -2.54,6.9 -2.54,14.09 v 14.86 c 0,4.15 0.13,7.15 0.38,9.01 0.25,2.62 0.89,4.66 1.91,6.09 1.95,3.05 6.47,4.57 13.58,4.57 5.93,0 9.86,-0.59 11.81,-1.78 2.54,-1.61 3.81,-5 3.81,-10.16 v -2.79 h 26.16 v 2.81 z"
   id="path26" />
		<path
   class="st4"
   d="m 1621.23,1146.23 v 17.65 h -40.63 v 18.54 h 44.19 v 20.82 h -69.58 v -95.23 h 68.69 v 20.82 h -43.3 v 17.4 z"
   id="path27" />
	</g>
</g>
<g
   id="g39"
   transform="translate(-375.21,-725.23)">
	<path
   d="m 542.19,1109.41 h 21.45 v 37.3 h 29.39 v -37.3 h 21.45 v 92.52 h -21.45 v -43.82 h -29.39 v 43.82 h -21.45 z"
   id="path28" />
	<path
   d="m 658.47,1109.41 v 92.52 h -21.45 v -92.52 z"
   id="path29" />
	<path
   d="m 749.85,1201.93 h -16.82 c -0.58,-1.58 -1.05,-5.37 -1.22,-7.39 -4.26,6.45 -13.46,8.7 -23.83,8.7 -22.94,0 -30.39,-9.68 -30.39,-24.99 v -44.65 c 0,-15.14 10.34,-25.49 36.38,-25.49 31.19,0 35.38,13.07 35.38,23.77 v 2.73 H 727.9 v -3.23 c 0,-5.55 -1.27,-11.96 -14,-11.96 -9.88,0 -14.45,3.79 -14.45,12.5 v 47.48 c 0,8.13 3.88,12.82 13.95,12.82 12.37,0 14.93,-6.3 14.93,-16.78 v -14.03 h -15.58 v -10.73 h 37.1 z"
   id="path30" />
	<path
   d="m 770.64,1109.41 h 21.45 v 81.41 h 40.23 l -2.01,11.12 h -59.67 z"
   id="path31" />
	<path
   d="M 899.46,1158.6 H 864 v 31.92 h 40.61 l -2.78,11.41 h -59.28 v -92.52 h 58.9 v 11.51 H 864 v 26.28 h 35.46 z"
   id="path32" />
	<path
   d="m 940.15,1201.93 v -33.52 c 0,-1.12 -0.24,-1.77 -0.81,-2.87 l -29.65,-56.14 h 23.68 c 7.06,15.74 15.34,34.13 17.88,43.54 h 0.24 c 3.21,-10.09 11.46,-28.27 17.97,-43.54 h 22.77 l -30.15,57.11 c -0.24,0.65 -0.48,1.5 -0.48,3.2 v 32.21 h -21.45 z"
   id="path33" />
	<path
   d="m 1017.56,1175.2 v 5.57 c 0,7.65 4.26,11.84 14.41,11.84 10.39,0 13.74,-5.07 13.74,-12.82 0,-10.32 -3.88,-13.87 -20.91,-21.6 -17.17,-7.81 -26.15,-12.69 -26.15,-26.36 0,-12 6.25,-23.86 33.53,-23.81 27.12,0.04 32.41,10.95 32.41,21.71 v 4.67 h -21.28 v -4.34 c 0,-6.96 -2.18,-11.31 -11.53,-11.31 -9.26,0 -11.68,4.68 -11.68,11.28 0,7.41 2.49,10.63 16.81,16.78 23.21,10.02 30.42,15.74 30.42,31.17 0,13.08 -7.31,25.27 -35.95,25.27 -28,0 -35.26,-10.43 -35.26,-22.62 v -5.42 h 21.44 z"
   id="path34" />
	<path
   class="st3"
   d="m 1115.46,1109.41 h 32.03 c 34.19,0 40.81,11.09 40.81,27.22 v 35.93 c 0,14.17 -4.02,29.38 -41.29,29.38 h -31.55 z m 21.45,81.89 h 8.64 c 17.54,0 20.89,-6.16 20.89,-16.81 v -39.02 c 0,-9.43 -2.9,-15.34 -20.92,-15.34 h -8.62 v 71.17 z"
   id="path35" />
	<path
   class="st3"
   d="m 1229.1,1159.79 v 42.14 h -21.45 v -92.52 h 31.55 c 24.21,0 37.51,5.79 37.51,21.87 v 3.82 c 0,13.52 -9.06,17.79 -16.28,19.38 9.67,2.38 14.75,6.5 14.75,18.98 0,7.84 -0.24,22.77 1.51,28.48 h -20.78 c -2.08,-5.67 -1.68,-21.01 -1.68,-27.63 0,-11.58 -2.68,-14.51 -17.64,-14.51 h -7.49 z m 0,-10.34 h 7.68 c 13.95,0 18.41,-3.79 18.41,-13.78 v -3.57 c 0,-7.7 -3.16,-12.35 -18,-12.35 h -8.09 z"
   id="path36" />
	<path
   class="st3"
   d="m 1366.71,1133.19 v 44.65 c 0,17.11 -12.41,25.39 -38.13,25.39 -25.48,0 -36.07,-8.82 -36.07,-25.2 v -44.9 c 0,-16.88 14.14,-25.03 37.46,-25.03 24,0.01 36.74,8.63 36.74,25.09 z m -52.34,-1 v 47.16 c 0,8.83 5.53,12.67 15.2,12.67 10.32,0 15.29,-3.64 15.29,-12.97 v -46.91 c 0,-8.39 -4.71,-12.72 -15.36,-12.72 -10.01,0 -15.13,4 -15.13,12.77 z"
   id="path37" />
	<path
   class="st3"
   d="m 1386.04,1201.93 v -92.52 h 25.09 c 7.32,14.77 27.74,61.63 29.82,67.65 h 0.31 c -1.05,-11.83 -1.2,-24.85 -1.2,-40 v -27.65 H 1460 v 92.52 h -24.18 c -6.5,-13.71 -28.48,-64.53 -30.68,-69.88 h -0.24 c 1.13,11.18 1.24,24.66 1.24,41.33 v 28.56 h -20.1 z"
   id="path38" />
	<path
   class="st3"
   d="m 1539.29,1158.6 h -35.46 v 31.92 h 40.61 l -2.78,11.41 h -59.28 v -92.52 h 58.9 v 11.51 h -37.45 v 26.28 h 35.46 z"
   id="path39" />
</g>
<g
   id="g48"
   transform="translate(-375.21,-725.23)">
	<path
   d="m 709.46,1262.39 v -5.7 c 1.51,0.58 3.32,1.09 5.43,1.56 2.11,0.46 4.33,0.85 6.67,1.17 2.33,0.32 4.68,0.56 7.04,0.73 2.36,0.17 4.53,0.26 6.54,0.26 6.89,0 12.04,-0.55 15.44,-1.66 3.4,-1.1 5.1,-2.69 5.1,-4.77 0,-1.11 -0.57,-2.08 -1.7,-2.91 -1.13,-0.83 -2.7,-1.58 -4.7,-2.26 -2,-0.68 -4.37,-1.33 -7.1,-1.96 -2.73,-0.62 -5.68,-1.28 -8.84,-1.97 -3.33,-0.73 -6.45,-1.47 -9.34,-2.22 -2.89,-0.75 -5.4,-1.57 -7.54,-2.48 -2.13,-0.9 -3.81,-1.93 -5.03,-3.07 -1.22,-1.14 -1.83,-2.48 -1.83,-4.02 0,-1.88 0.96,-3.52 2.87,-4.91 1.91,-1.39 4.42,-2.54 7.54,-3.44 3.11,-0.9 6.66,-1.57 10.64,-2.02 3.98,-0.44 8.04,-0.66 12.17,-0.66 9.42,0 16.29,0.49 20.61,1.47 v 5.45 c -5.65,-1.69 -12.89,-2.54 -21.74,-2.54 -2.45,0 -4.89,0.11 -7.34,0.33 -2.45,0.22 -4.62,0.58 -6.54,1.08 -1.91,0.5 -3.47,1.14 -4.67,1.93 -1.2,0.79 -1.8,1.75 -1.8,2.88 0,1.06 0.46,1.97 1.37,2.74 0.91,0.77 2.26,1.47 4.03,2.1 1.78,0.63 3.94,1.25 6.5,1.84 2.56,0.6 5.5,1.25 8.84,1.96 3.42,0.73 6.67,1.5 9.74,2.3 3.07,0.81 5.76,1.7 8.07,2.68 2.31,0.98 4.14,2.06 5.5,3.26 1.36,1.19 2.03,2.55 2.03,4.09 0,2.04 -0.92,3.76 -2.77,5.17 -1.85,1.41 -4.33,2.56 -7.47,3.44 -3.13,0.88 -6.75,1.52 -10.84,1.92 -4.09,0.39 -8.4,0.59 -12.94,0.59 -1.51,0 -3.38,-0.05 -5.6,-0.16 -2.22,-0.11 -4.49,-0.26 -6.8,-0.46 -2.31,-0.2 -4.5,-0.45 -6.57,-0.75 -2.07,-0.29 -3.73,-0.62 -4.97,-0.99 z"
   id="path40" />
	<path
   d="m 825.03,1264.75 c -13.56,0 -24.42,-1.93 -32.58,-5.79 -8.16,-3.86 -12.24,-8.88 -12.24,-15.07 0,-6.65 4.16,-11.95 12.47,-15.9 8.31,-3.96 19.63,-5.94 33.94,-5.94 13.2,0 23.84,1.92 31.91,5.76 8.07,3.84 12.1,8.86 12.1,15.07 0,6.74 -4.13,12.07 -12.4,15.99 -8.26,3.93 -19.33,5.88 -33.2,5.88 z m 0.8,-38.31 c -10.05,0 -18.21,1.57 -24.47,4.7 -6.27,3.13 -9.4,7.24 -9.4,12.33 0,5.09 3.06,9.19 9.17,12.29 6.11,3.1 14.08,4.65 23.91,4.65 10.49,0 18.76,-1.48 24.81,-4.44 6.05,-2.96 9.07,-7.1 9.07,-12.42 0,-5.45 -2.93,-9.67 -8.8,-12.65 -5.89,-2.97 -13.98,-4.46 -24.29,-4.46 z"
   id="path41" />
	<path
   d="m 939.06,1264.06 h -49.61 v -41.31 h 11.2 v 36.94 h 38.41 z"
   id="path42" />
	<path
   d="m 1023.69,1247.35 c 0,11.6 -12.11,17.4 -36.34,17.4 -23.21,0 -34.81,-5.58 -34.81,-16.74 v -25.27 h 11.2 v 24.95 c 0,8.47 8.27,12.71 24.81,12.71 15.96,0 23.94,-4.09 23.94,-12.27 v -25.38 h 11.2 z"
   id="path43" />
	<path
   d="m 1104.11,1227.13 h -27.61 v 36.94 h -11.2 v -36.94 h -27.54 v -4.38 h 66.35 z"
   id="path44" />
	<path
   d="m 1139.65,1222.75 v 4.15 h -9.34 v 33.02 h 9.34 v 4.15 h -29.88 v -4.15 h 9.34 v -33.02 h -9.34 v -4.15 z"
   id="path45" />
	<path
   d="m 1194,1264.75 c -13.56,0 -24.42,-1.93 -32.58,-5.79 -8.16,-3.86 -12.24,-8.88 -12.24,-15.07 0,-6.65 4.16,-11.95 12.47,-15.9 8.31,-3.96 19.63,-5.94 33.94,-5.94 13.2,0 23.84,1.92 31.91,5.76 8.07,3.84 12.1,8.86 12.1,15.07 0,6.74 -4.13,12.07 -12.4,15.99 -8.26,3.93 -19.33,5.88 -33.2,5.88 z m 0.8,-38.31 c -10.05,0 -18.21,1.57 -24.47,4.7 -6.27,3.13 -9.4,7.24 -9.4,12.33 0,5.09 3.06,9.19 9.17,12.29 6.11,3.1 14.08,4.65 23.91,4.65 10.49,0 18.76,-1.48 24.81,-4.44 6.05,-2.96 9.07,-7.1 9.07,-12.42 0,-5.45 -2.93,-9.67 -8.8,-12.65 -5.88,-2.97 -13.97,-4.46 -24.29,-4.46 z"
   id="path46" />
	<path
   d="m 1335.51,1264.06 h -13.74 l -49.21,-32.93 c -1.24,-0.83 -2.27,-1.69 -3.07,-2.59 h -0.4 c 0.36,0.88 0.53,2.78 0.53,5.68 v 29.85 h -11.2 v -41.31 h 14.54 l 47.88,32.41 c 2,1.34 3.29,2.27 3.87,2.77 h 0.27 c -0.44,-1.19 -0.67,-3.22 -0.67,-6.08 v -29.1 h 11.2 z"
   id="path47" />
	<path
   d="m 1356.12,1262.39 v -5.7 c 1.51,0.58 3.32,1.09 5.44,1.56 2.11,0.46 4.33,0.85 6.67,1.17 2.33,0.32 4.68,0.56 7.03,0.73 2.36,0.17 4.53,0.26 6.54,0.26 6.89,0 12.04,-0.55 15.44,-1.66 3.4,-1.1 5.1,-2.69 5.1,-4.77 0,-1.11 -0.57,-2.08 -1.7,-2.91 -1.13,-0.83 -2.7,-1.58 -4.7,-2.26 -2,-0.68 -4.37,-1.33 -7.1,-1.96 -2.73,-0.62 -5.68,-1.28 -8.84,-1.97 -3.33,-0.73 -6.45,-1.47 -9.34,-2.22 -2.89,-0.75 -5.4,-1.57 -7.54,-2.48 -2.13,-0.9 -3.81,-1.93 -5.03,-3.07 -1.22,-1.14 -1.83,-2.48 -1.83,-4.02 0,-1.88 0.96,-3.52 2.87,-4.91 1.91,-1.39 4.42,-2.54 7.54,-3.44 3.11,-0.9 6.66,-1.57 10.64,-2.02 3.98,-0.44 8.04,-0.66 12.17,-0.66 9.43,0 16.29,0.49 20.61,1.47 v 5.45 c -5.65,-1.69 -12.89,-2.54 -21.74,-2.54 -2.45,0 -4.89,0.11 -7.34,0.33 -2.45,0.22 -4.62,0.58 -6.54,1.08 -1.91,0.5 -3.47,1.14 -4.67,1.93 -1.2,0.79 -1.8,1.75 -1.8,2.88 0,1.06 0.46,1.97 1.37,2.74 0.91,0.77 2.26,1.47 4.03,2.1 1.78,0.63 3.95,1.25 6.5,1.84 2.56,0.6 5.5,1.25 8.84,1.96 3.42,0.73 6.67,1.5 9.74,2.3 3.07,0.81 5.76,1.7 8.07,2.68 2.31,0.98 4.15,2.06 5.5,3.26 1.36,1.19 2.03,2.55 2.03,4.09 0,2.04 -0.92,3.76 -2.77,5.17 -1.85,1.41 -4.34,2.56 -7.47,3.44 -3.14,0.88 -6.75,1.52 -10.84,1.92 -4.09,0.39 -8.4,0.59 -12.94,0.59 -1.51,0 -3.38,-0.05 -5.6,-0.16 -2.22,-0.11 -4.49,-0.26 -6.8,-0.46 -2.31,-0.2 -4.5,-0.45 -6.57,-0.75 -2.07,-0.29 -3.73,-0.62 -4.97,-0.99 z"
   id="path48" />
</g>
</svg>
